<?xml version="1.0" encoding="utf-8"?>
<!-- Generator: Adobe Illustrator 24.0.2, SVG Export Plug-In . SVG Version: 6.00 Build 0)  -->
<svg version="1.1" xmlns="http://www.w3.org/2000/svg" xmlns:xlink="http://www.w3.org/1999/xlink" x="0px" y="0px"
	 viewBox="0 0 3000 1500" style="enable-background:new 0 0 3000 1500;" xml:space="preserve">
<style type="text/css">
	.st0{fill:#FFFFFF;}
	.st1{fill:#D8D8D8;}
	.st2{fill:#B4D710;}
	.st3{fill:#D5ED24;}
	.st4{fill:#A0A800;}
	.st5{fill:#F9394A;}
	.st6{fill:#606D00;}
	.st7{fill:#879100;}
	.st8{fill:#66BDC8;}
	.st9{fill:#3C6A71;}
	.st10{fill:#FEFEFE;}
	.st11{fill:#42B2AF;}
	.st12{fill:#2C918C;}
	.st13{fill:#231E1F;}
	.st14{fill:#60CCC6;}
	.st15{fill:#815787;}
	.st16{fill:#5F3566;}
	.st17{fill:#228984;}
	.st18{fill:#8CEDE4;}
	.st19{fill:#1C5274;}
	.st20{fill:#F63E4C;}
	.st21{fill:#CC1B31;}
	.st22{fill:#84021E;}
	.st23{fill:#E583BB;}
	.st24{fill:#FCFBFC;}
	.st25{fill:#D11930;}
	.st26{fill:#FF808F;}
	.st27{fill:#F7B615;}
	.st28{fill:#D39409;}
	.st29{fill:#066F96;}
	.st30{fill:#16465F;}
	.st31{fill:#0F1317;}
	.st32{fill:#FFC33E;}
	.st33{fill:#DD9903;}
	.st34{fill:#FFC85A;}
	.st35{fill:#215070;}
	.st36{fill:#339B85;}
	.st37{fill:#123E56;}
	.st38{fill:#0B2E3F;}
	.st39{fill:#874C90;}
	.st40{fill:#50225B;}
	.st41{fill:#4984A5;}
	.st42{fill:#082D3D;}
	.st43{fill:#D12558;}
	.st44{fill:#F07EB9;}
	.st45{fill:#FFA6D7;}
	.st46{fill:#70234F;}
	.st47{fill:#1BADB7;}
	.st48{fill:#D3549A;}
	.st49{fill:#0E1216;}
	.st50{fill:#FE3C4C;}
	.st51{fill:#BC3F89;}
	.st52{fill:#FF9FD4;}
	.st53{fill:#FC3D4E;}
	.st54{fill:#904A9A;}
	.st55{fill:#6C2C77;}
	.st56{fill:#6D6E30;}
	.st57{fill:#AC69B7;}
	.st58{fill:#223437;}
	.st59{fill:#AB67B7;}
	.st60{fill:#C085CC;}
	.st61{fill:#D44666;}
	.st62{fill:#A52144;}
	.st63{fill:#136580;}
	.st64{fill:#5D1168;}
	.st65{fill:#241F21;}
	.st66{fill:#E86286;}
</style>
<g id="Background">
	<rect class="st0" width="3000" height="1500"/>
</g>
<g id="Object">
	<g>
		<ellipse class="st1" cx="1197.85" cy="1411.12" rx="154.38" ry="14.54"/>
		<g>
			<path class="st2" d="M1272.62,1324.94l-3.95,51.38c0,0,55.9-15.81,55.9,16.94s-87.52,30.49-96.55,11.86
				c-9.03-18.63,0-68.89,0-68.89l22.02-28.8L1272.62,1324.94z"/>
			<path class="st2" d="M1119.28,1324.94l3.95,51.38c0,0-55.9-15.81-55.9,16.94s87.52,30.49,96.55,11.86c9.03-18.63,0-68.89,0-68.89
				l-22.02-28.8L1119.28,1324.94z"/>
			<path class="st2" d="M1353.87,1240.97c-46.23,167.55-266.72,119.52-304.76,31.9c-17.75-40.86-45.85-151.36-27.65-244.13
				c11.32-57.74,40.56-108.61,101.38-131.62h0.01c20.35-7.68,44.22-12.25,72.14-12.9c28.83-0.68,53.62,2.98,74.79,10.25
				c59.28,20.38,90.11,69.12,101.59,130.22C1383.54,1089.26,1374.11,1167.63,1353.87,1240.97z"/>
			<g>
				<path class="st3" d="M1344.24,1099.35c6.84,3.38,6.84,13.14,0,16.52c-4.2,2.07-9.19,4.41-14.87,6.88
					c-4.71,2.04-9.9,4.18-15.53,6.34c-2.78,1.06-5.65,2.11-8.64,3.17c-28.65,10.18-66.39,19.62-107.74,19.62
					c-39.01,0-74.84-4.04-102.82-8.61c-5.65-0.92-10.98-1.86-15.97-2.8c-5.56-1.06-10.68-2.09-15.3-3.06
					c-3.74-0.8-7.16-1.57-10.22-2.28c-7.6-1.77-9.7-11.61-3.48-16.31c11.54-8.73,29.45-20.92,51.72-31.65
					c4.46-2.16,9.1-4.25,13.9-6.25c21.02-8.75,45.09-15.6,70.8-17.21c3.74-0.25,7.56-0.37,11.37-0.37c1.42,0,2.85,0,4.27,0.02
					c26.12,0.41,50.7,4.53,72.34,10.06c4.96,1.29,9.79,2.64,14.43,4.04C1312.44,1084.67,1331.79,1093.2,1344.24,1099.35z"/>
				<path class="st4" d="M1334.22,1107.61c0,0-9.45,5.77-25.55,12.76c-3.97,1.72-8.35,3.52-13.09,5.35
					c-2.34,0.89-4.76,1.78-7.28,2.67c-24.15,8.58-55.97,16.54-90.83,16.54c-32.89,0-63.1-3.41-86.69-7.26
					c-4.76-0.77-9.26-1.57-13.46-2.36c-4.69-0.89-9.01-1.76-12.9-2.58c-14.95-3.2-23.69-5.75-23.69-5.75s21.92-20.32,55.74-36.6
					c3.76-1.82,7.67-3.58,11.72-5.27c17.72-7.38,38.02-13.15,59.69-14.51c3.16-0.21,6.37-0.31,9.59-0.31c1.2,0,2.4,0,3.6,0.02
					c22.02,0.35,42.74,3.82,60.99,8.48c4.18,1.08,8.25,2.23,12.16,3.41C1310.44,1093.1,1334.22,1107.61,1334.22,1107.61z"/>
				<path class="st5" d="M1288.3,1128.39c-24.15,8.58-55.97,16.54-90.83,16.54c-32.89,0-63.1-3.41-86.69-7.26
					c24.05-12.82,55.55-24.64,90.02-24.64C1234.07,1113.03,1264.6,1120.29,1288.3,1128.39z"/>
				<path class="st0" d="M1308.68,1120.37c-3.97,1.72-8.35,3.52-13.09,5.35v-23.03L1308.68,1120.37z"/>
				<path class="st0" d="M1274.22,1082.19l-9.14,17.12l-3.02-20.53C1266.24,1079.87,1270.31,1081.01,1274.22,1082.19z"/>
				<path class="st0" d="M1201.07,1070.3l-2.69,19.52l-10.5-19.23c3.16-0.21,6.37-0.31,9.59-0.31
					C1198.67,1070.28,1199.87,1070.28,1201.07,1070.3z"/>
				<path class="st0" d="M1130.61,1105.38l-14.14-15.01c3.76-1.82,7.67-3.58,11.72-5.27L1130.61,1105.38z"/>
				<path class="st0" d="M1097.92,1115.57l-0.6,19.74c-4.69-0.89-9.01-1.76-12.9-2.58L1097.92,1115.57z"/>
			</g>
			<g>
				<path class="st2" d="M1369.43,1130.66c0,0,42.37,47.18,56.81-13.48c14.44-60.66,98.21-47.18,65.48,26.96
					c-32.74,74.14-108.81,42.67-122.29,4l-15.41-14.13L1369.43,1130.66z"/>
				<g>
					<path class="st6" d="M1450.7,1088.06c3.3,0.83,1.93-21.18-2.17-22.63C1444.44,1063.98,1445.88,1086.85,1450.7,1088.06z"/>
					<path class="st6" d="M1464.86,1086.21c3.14,1.32,5.11-20.65,1.28-22.69C1462.32,1061.47,1460.28,1084.3,1464.86,1086.21z"/>
					<path class="st6" d="M1477.53,1090.61c2.16,2.63,14.16-15.88,11.73-19.47C1486.83,1067.54,1474.38,1086.77,1477.53,1090.61z"/>
					<path class="st6" d="M1485.46,1100.03c0.71,3.33,19.86-7.61,19.36-11.92C1504.3,1083.8,1484.41,1095.18,1485.46,1100.03z"/>
					<path class="st6" d="M1490.66,1112.66c-0.61,3.35,21.26,0.57,22.44-3.6C1514.29,1104.88,1491.56,1107.78,1490.66,1112.66z"/>
				</g>
				<path class="st3" d="M1439.16,1108.9c3.02-11.72,16.14-18.46,29.31-15.07c13.17,3.39,21.4,15.64,18.38,27.36
					S1436.14,1120.62,1439.16,1108.9z"/>
			</g>
			<g>
				<path class="st2" d="M1023.47,1130.66c0,0-42.37,47.18-56.81-13.48c-14.44-60.66-98.21-47.18-65.48,26.96
					c32.74,74.14,108.81,42.67,122.29,4l15.41-14.13L1023.47,1130.66z"/>
				<g>
					<path class="st6" d="M942.2,1088.06c-3.3,0.83-1.93-21.18,2.17-22.63C948.46,1063.98,947.01,1086.85,942.2,1088.06z"/>
					<path class="st6" d="M928.04,1086.21c-3.14,1.32-5.11-20.65-1.28-22.69C930.58,1061.47,932.61,1084.3,928.04,1086.21z"/>
					<path class="st6" d="M915.37,1090.61c-2.16,2.63-14.16-15.88-11.73-19.47C906.07,1067.54,918.52,1086.77,915.37,1090.61z"/>
					<path class="st6" d="M907.44,1100.03c-0.71,3.33-19.86-7.61-19.36-11.92C888.59,1083.8,908.48,1095.18,907.44,1100.03z"/>
					<path class="st6" d="M902.24,1112.66c0.61,3.35-21.26,0.57-22.44-3.6C878.61,1104.88,901.34,1107.78,902.24,1112.66z"/>
				</g>
				<path class="st3" d="M953.74,1108.9c-3.02-11.72-16.14-18.46-29.31-15.07c-13.17,3.39-21.4,15.64-18.38,27.36
					C909.07,1132.91,956.75,1120.62,953.74,1108.9z"/>
			</g>
			<g>
				<path class="st7" d="M1371.37,1024.69c-15.07,15.1-35.91,24.44-58.92,24.44c-45.95,0-83.21-37.26-83.21-83.22
					c0-30.35,16.25-56.9,40.53-71.44C1329.06,914.86,1359.89,963.59,1371.37,1024.69z"/>
				<circle class="st2" cx="1312.46" cy="950.26" r="83.22"/>
				
					<ellipse transform="matrix(0.7071 -0.7071 0.7071 0.7071 -287.5217 1206.3722)" class="st0" cx="1312.46" cy="950.26" rx="74.14" ry="74.14"/>
				
					<ellipse transform="matrix(0.2298 -0.9732 0.9732 0.2298 78.625 2015.1837)" class="st8" cx="1312.46" cy="957.92" rx="47.21" ry="47.21"/>
				<circle class="st9" cx="1312.46" cy="957.92" r="21.7"/>
				
					<ellipse transform="matrix(0.9585 -0.2852 0.2852 0.9585 -212.0239 411.9908)" class="st0" cx="1308.36" cy="933.88" rx="18.87" ry="9.75"/>
				<circle class="st0" cx="1327.22" cy="981" r="9.31"/>
			</g>
			<g>
				<path class="st7" d="M1159.25,965.92c0,45.96-37.26,83.22-83.22,83.22c-20.88,0-39.95-7.69-54.56-20.4
					c11.32-57.74,40.56-108.61,101.38-131.62h0.01C1144.82,912.11,1159.25,937.33,1159.25,965.92z"/>
				<circle class="st2" cx="1076.03" cy="950.26" r="83.22"/>
				
					<ellipse transform="matrix(0.7071 -0.7071 0.7071 0.7071 -356.7695 1039.1932)" class="st10" cx="1076.03" cy="950.26" rx="74.14" ry="74.14"/>
				
					<ellipse transform="matrix(0.2521 -0.9677 0.9677 0.2521 -122.1958 1757.7325)" class="st8" cx="1076.03" cy="957.92" rx="47.21" ry="47.21"/>
				<circle class="st9" cx="1076.03" cy="957.92" r="21.7"/>
				<path class="st10" d="M1090.01,928.49c1.54,5.16-5.32,11.75-15.3,14.73c-9.99,2.97-19.33,1.2-20.86-3.96
					c-1.54-5.16,5.32-11.75,15.3-14.73C1079.14,921.56,1088.48,923.33,1090.01,928.49z"/>
				<circle class="st10" cx="1090.8" cy="981" r="9.31"/>
			</g>
			
				<ellipse transform="matrix(0.1602 -0.9871 0.9871 0.1602 -53.5596 2319.8193)" class="st4" cx="1336.53" cy="1191.39" rx="9.39" ry="9.39"/>
			<circle class="st4" cx="1327.22" cy="1223.64" r="19.8"/>
			<circle class="st4" cx="1327.14" cy="1258.31" r="4.45"/>
			<circle class="st4" cx="1291.76" cy="1267.45" r="10.38"/>
			
				<ellipse transform="matrix(0.7071 -0.7071 0.7071 0.7071 -527.5599 1302.6675)" class="st4" cx="1308.68" cy="1288.15" rx="10.32" ry="10.32"/>
			<circle class="st4" cx="1274.22" cy="1304.52" r="18.52"/>
			
				<ellipse transform="matrix(0.9239 -0.3827 0.3827 0.9239 -259.3636 517.5068)" class="st4" cx="1171.16" cy="910.71" rx="8.06" ry="8.06"/>
			
				<ellipse transform="matrix(0.1602 -0.9871 0.9871 0.1602 122.6141 1957.344)" class="st4" cx="1211.6" cy="906.61" rx="12.16" ry="12.16"/>
			<circle class="st4" cx="1194.48" cy="933.88" r="17.12"/>
		</g>
	</g>
	<g>
		<ellipse class="st1" cx="2602.75" cy="727.71" rx="155.59" ry="14.54"/>
		<g>
			<g>
				<path class="st9" d="M2624.26,151.14c0,0,33.8-57.1,63.44-33.71c29.63,23.4-1.06,63.79-1.06,63.79L2624.26,151.14z"/>
				<path class="st9" d="M2573.71,151.14c0,0-33.8-57.1-63.44-33.71s1.06,63.79,1.06,63.79L2573.71,151.14z"/>
			</g>
			<path class="st11" d="M2561.9,694.14c0,54.12-87.99,54.12-87.99,0c0-54.12,19.7-97.99,43.99-97.99S2561.9,640.02,2561.9,694.14z"
				/>
			<path class="st11" d="M2720,694.14c0,54.12-87.99,54.12-87.99,0c0-54.12,19.7-97.99,43.99-97.99S2720,640.02,2720,694.14z"/>
			<g>
				<path class="st12" d="M2440.93,456.77c0,0-79.38-18.53-78.78,43.83s-83.95,69.46-70.04-10.39
					c13.91-79.85,122.21-84.68,144.61-50.41l18.36,10L2440.93,456.77z"/>
				<g>
					<path class="st13" d="M2345.43,534.76c-3.4-0.01,3.24,21.02,7.56,21.44C2357.3,556.61,2350.39,534.77,2345.43,534.76z"/>
					<path class="st13" d="M2332.12,539.96c-3.36-0.52,0.02,21.27,4.23,22.33C2340.56,563.36,2337.03,540.72,2332.12,539.96z"/>
					<path class="st13" d="M2318.77,538.75c-2.73-2.03-9.91,18.82-6.69,21.72C2315.3,563.38,2322.75,541.71,2318.77,538.75z"/>
					<path class="st13" d="M2308.81,531.52c-1.5-3.06-17.44,12.17-15.91,16.23C2294.43,551.81,2310.99,535.97,2308.81,531.52z"/>
					<path class="st13" d="M2300.71,520.51c-0.21-3.4-20.77,4.57-20.91,8.91C2279.66,533.75,2301.02,525.46,2300.71,520.51z"/>
				</g>
			</g>
			<g>
				<path class="st12" d="M2749.7,456.77c0,0,79.38-18.53,78.78,43.83s83.95,69.46,70.04-10.39
					c-13.91-79.85-122.21-84.68-144.61-50.41l-18.36,10L2749.7,456.77z"/>
				<g>
					<path class="st13" d="M2845.2,534.76c3.4-0.01-3.24,21.02-7.56,21.44C2833.33,556.61,2840.24,534.77,2845.2,534.76z"/>
					<path class="st13" d="M2858.5,539.96c3.36-0.52-0.02,21.27-4.23,22.33C2850.07,563.36,2853.6,540.72,2858.5,539.96z"/>
					<path class="st13" d="M2871.86,538.75c2.73-2.03,9.91,18.82,6.69,21.72C2875.33,563.38,2867.88,541.71,2871.86,538.75z"/>
					<path class="st13" d="M2881.82,531.52c1.5-3.06,17.44,12.17,15.91,16.23C2896.2,551.81,2879.64,535.97,2881.82,531.52z"/>
					<path class="st13" d="M2889.92,520.51c0.21-3.4,20.77,4.57,20.91,8.91C2910.97,533.75,2889.61,525.46,2889.92,520.51z"/>
				</g>
			</g>
			<path class="st11" d="M2784.57,599.92c-6.12,8.5-13.15,16.17-20.85,23.04c-32.87,29.41-78.35,44.78-121.12,50.99
				c-9.44,1.37-18.96,2.29-28.5,2.76c-64.76,3.15-137.45-13.47-188.86-55.42c-4.96-4.04-9.73-8.33-14.26-12.85
				c-14.91-14.86-27.39-32.83-32.36-53.28c-8.52-35.09,6.01-68.82,19.38-100.54c12.73-30.15,23.51-61.87,28.13-94.4
				c2.99-21.02,6.15-42.31,10.5-63.32c4.83-23.29,11.12-46.25,20.24-68.11c3.69-8.84,7.86-17.08,12.52-24.7
				c28.06-45.92,73.29-69.08,131.03-65.34c46.8,3.03,98.42,13.7,127.71,51.09c5.03,6.41,9.39,13.6,12.96,21.68
				c14.29,32.29,14.21,69.85,11.45,104.41c-0.07,0.97-0.14,1.92-0.2,2.88c-2.65,47.41,23.7,78.76,43.35,119.27
				C2820.19,488.49,2817.81,553.83,2784.57,599.92z"/>
			<g>
				<path class="st13" d="M2735.46,442.2c-13.33,23.57-37.58,18.45-68.98,13.35c-14.75-2.41-31.06-4.8-48.56-4.21
					c-15.13,0.49-31.17,3.22-47.82,10.09c-76.91,31.72-141.91,16.57-129.79-68.26c3.68-25.75,19-44.03,37.7-54.63
					c25.26-14.32,56.7-14.56,73.84-0.19c11.87,9.97,23.4,21.69,35.78,32.08c12.08,10.11,24.97,18.96,39.82,23.68
					c27.48,8.74,49.96-16.46,74.56-17.18c7.3-0.25,14.81,1.69,22.68,7.34c1.84,1.31,3.51,2.73,5.04,4.27
					C2743.97,402.55,2745.43,424.57,2735.46,442.2z"/>
				<g>
					<path class="st10" d="M2587.61,370.43c-21.26,28.94-55.46,70.46-76.17,69.84c-19.97-0.61-29.28-58.74-33.45-101.73
						c25.26-14.32,56.7-14.56,73.84-0.19C2563.7,348.32,2575.23,360.04,2587.61,370.43z"/>
				</g>
				<g>
					<path class="st10" d="M2666.48,455.55c-14.75-2.41-31.06-4.8-48.56-4.21c7.87-14.83,22.53-40.46,29.37-39.78
						C2654.04,412.24,2662.21,439.41,2666.48,455.55z"/>
				</g>
				<g>
					<path class="st10" d="M2729.72,388.54c-5.39,7.98-10.64,14.01-13.99,13.67c-4.46-0.44-9.56-12.5-13.73-25.28
						c7.3-0.25,14.81,1.69,22.68,7.34C2726.51,385.58,2728.18,387,2729.72,388.54z"/>
				</g>
			</g>
			<path class="st14" d="M2763.72,622.96c-32.87,29.41-78.35,44.78-121.12,50.99c-9.44,1.37-18.96,2.29-28.5,2.76
				c-64.76,3.15-137.45-13.47-188.86-55.42c30.27-62.77,94.49-106.09,168.85-106.09C2669.09,515.21,2733.79,559.3,2763.72,622.96z"
				/>
			<g>
				<path class="st12" d="M2752.55,315.94c-0.07,0.97-0.14,1.92-0.2,2.88c-9.59,5.1-20.54,7.99-32.16,7.99
					c-37.96,0-68.71-30.76-68.71-68.71c0-37.94,30.75-68.71,68.71-68.71c2.69,0,5.34,0.16,7.95,0.46
					c5.03,6.41,9.39,13.6,12.96,21.68C2755.38,243.81,2755.31,281.37,2752.55,315.94z"/>
				<circle class="st11" cx="2720.19" cy="242.43" r="68.71"/>
				<circle class="st0" cx="2720.19" cy="242.43" r="61.21"/>
				<circle class="st15" cx="2720.19" cy="239.48" r="38.98"/>
				<circle class="st16" cx="2720.19" cy="239.48" r="17.91"/>
				<path class="st0" d="M2731.73,215.19c1.27,4.26-4.39,9.7-12.63,12.16c-8.25,2.45-15.96,0.99-17.23-3.27
					c-1.27-4.26,4.39-9.7,12.63-12.16C2722.75,209.47,2730.46,210.93,2731.73,215.19z"/>
				<circle class="st0" cx="2732.38" cy="258.54" r="7.68"/>
			</g>
			<g>
				<path class="st12" d="M2531.85,258.85c0,30.49-24.71,55.22-55.2,55.22c-15.74,0-29.95-6.59-40.01-17.16
					c4.83-23.29,11.12-46.25,20.24-68.11c3.69-8.84,7.86-17.08,12.52-24.7c2.38-0.31,4.79-0.47,7.25-0.47
					C2507.14,203.63,2531.85,228.36,2531.85,258.85z"/>
				
					<ellipse transform="matrix(0.1602 -0.9871 0.9871 0.1602 1839.8794 2648.8896)" class="st11" cx="2476.64" cy="243.19" rx="55.22" ry="55.22"/>
				
					<ellipse transform="matrix(0.9239 -0.3827 0.3827 0.9239 95.46 966.28)" class="st0" cx="2476.64" cy="243.19" rx="49.19" ry="49.19"/>
				<circle class="st15" cx="2476.64" cy="243.61" r="31.33"/>
				
					<ellipse transform="matrix(0.7071 -0.7071 0.7071 0.7071 553.1306 1822.6)" class="st16" cx="2476.64" cy="243.61" rx="14.4" ry="14.4"/>
				<path class="st0" d="M2485.91,224.09c1.02,3.42-3.53,7.8-10.15,9.77c-6.63,1.97-12.82,0.79-13.84-2.63
					c-1.02-3.42,3.53-7.8,10.15-9.77C2478.7,219.49,2484.9,220.67,2485.91,224.09z"/>
				<path class="st0" d="M2492.61,258.92c0,3.41-2.77,6.18-6.18,6.18c-3.41,0-6.18-2.77-6.18-6.18c0-3.41,2.76-6.18,6.18-6.18
					C2489.84,252.75,2492.61,255.51,2492.61,258.92z"/>
			</g>
			<g>
				
					<ellipse transform="matrix(0.2298 -0.9732 0.9732 0.2298 1797.3108 2608.7075)" class="st17" cx="2546.78" cy="168.85" rx="12.37" ry="12.37"/>
				
					<ellipse transform="matrix(0.7071 -0.7071 0.7071 0.7071 648.2673 1868.6196)" class="st17" cx="2579.76" cy="151.78" rx="7.7" ry="7.7"/>
				
					<ellipse transform="matrix(0.9239 -0.3827 0.3827 0.9239 129.9285 1008.2986)" class="st17" cx="2599.5" cy="177.55" rx="18.07" ry="18.07"/>
				<path class="st17" d="M2636.69,154.77c0,3.59-2.91,6.5-6.5,6.5s-6.5-2.91-6.5-6.5c0-3.59,2.91-6.5,6.5-6.5
					S2636.69,151.18,2636.69,154.77z"/>
				<circle class="st17" cx="2647.16" cy="181.22" r="14.4"/>
				<path class="st17" d="M2572.53,177.06c-1.84,0.26-3.55-1.02-3.81-2.86c-0.26-1.84,1.02-3.55,2.86-3.81
					c1.84-0.26,3.55,1.02,3.81,2.86C2575.65,175.1,2574.37,176.8,2572.53,177.06z"/>
				
					<ellipse transform="matrix(0.6007 -0.7995 0.7995 0.6007 932.5522 2196.3445)" class="st17" cx="2664.93" cy="164.64" rx="3.37" ry="3.37"/>
			</g>
			<g>
				<circle class="st18" cx="2473.92" cy="616.59" r="18.66"/>
				<circle class="st18" cx="2584.05" cy="642.2" r="18.66"/>
				<circle class="st18" cx="2503.05" cy="642.2" r="8.27"/>
				<circle class="st18" cx="2612.45" cy="665.44" r="8.27"/>
				<path class="st18" d="M2532.3,631.36c0,2.39-1.94,4.33-4.33,4.33c-2.39,0-4.33-1.94-4.33-4.33s1.94-4.33,4.33-4.33
					C2530.36,627.03,2532.3,628.97,2532.3,631.36z"/>
				<circle class="st18" cx="2549.99" cy="649.81" r="11.92"/>
			</g>
		</g>
	</g>
	<g>
		<ellipse class="st1" cx="1908.27" cy="1405.21" rx="257" ry="14.54"/>
		<g>
			<g>
				<path class="st19" d="M1937.42,884.6c-4.01-16.46,40.07-75.85,62.01-73.94c21.94,1.91,19.08,77.28,17.65,100.65
					C2015.65,934.69,1946.48,921.81,1937.42,884.6z"/>
				<path class="st19" d="M1792,898.84c4.01-16.46-40.07-75.85-62.01-73.94c-21.94,1.91-19.08,77.28-17.65,100.65
					C1713.76,948.93,1782.93,936.05,1792,898.84z"/>
			</g>
			<g>
				
					<ellipse transform="matrix(0.9725 -0.2327 0.2327 0.9725 -168.8854 501.339)" class="st19" cx="2040.46" cy="966.48" rx="40.04" ry="35.86"/>
				
					<ellipse transform="matrix(0.9725 -0.2327 0.2327 0.9725 -184.0954 506.9289)" class="st19" cx="2056.55" cy="1033.75" rx="40.04" ry="35.86"/>
				
					<ellipse transform="matrix(0.0906 -0.9959 0.9959 0.0906 772.3452 3050.6912)" class="st19" cx="2056.55" cy="1102.45" rx="35.86" ry="40.04"/>
				
					<ellipse transform="matrix(0.9725 -0.2327 0.2327 0.9725 -216.4688 511.6126)" class="st19" cx="2060.21" cy="1173.3" rx="40.04" ry="35.86"/>
				
					<ellipse transform="matrix(0.9725 -0.2327 0.2327 0.9725 -231.8155 516.9514)" class="st19" cx="2075.16" cy="1241.01" rx="40.04" ry="35.86"/>
			</g>
			<path class="st20" d="M1857.16,868.34c233.65-17.75,225.31,205.09,203.65,316.31s89.55,47.66,89.55,116.99
				s-285.06,186.12-426.07,20.22C1576.96,1148.54,1628.96,885.67,1857.16,868.34z"/>
			<g>
				
					<ellipse transform="matrix(0.7071 -0.7071 0.7071 0.7071 -221.1014 1569.3459)" class="st21" cx="1783.82" cy="1051.57" rx="63.45" ry="63.45"/>
				
					<ellipse transform="matrix(0.7071 -0.7071 0.7071 0.7071 -216.0659 1567.2601)" class="st20" cx="1783.82" cy="1044.44" rx="63.45" ry="63.45"/>
				<circle class="st0" cx="1783.82" cy="1044.44" r="56.53"/>
				<circle class="st8" cx="1783.82" cy="1050.29" r="36"/>
				<circle class="st9" cx="1783.82" cy="1050.29" r="16.54"/>
				<path class="st0" d="M1794.48,1027.85c1.17,3.93-4.05,8.96-11.67,11.23c-7.61,2.27-14.74,0.91-15.91-3.02
					c-1.17-3.93,4.05-8.96,11.67-11.23C1786.18,1022.57,1793.31,1023.92,1794.48,1027.85z"/>
				<circle class="st0" cx="1795.07" cy="1067.88" r="7.1"/>
			</g>
			<g>
				
					<ellipse transform="matrix(0.9239 -0.3827 0.3827 0.9239 -256.4234 828.5384)" class="st21" cx="1954.46" cy="1058.83" rx="46.17" ry="46.17"/>
				<circle class="st20" cx="1954.46" cy="1050.29" r="46.17"/>
				<circle class="st0" cx="1954.46" cy="1050.29" r="41.13"/>
				<circle class="st8" cx="1954.46" cy="1054.54" r="26.19"/>
				<circle class="st9" cx="1954.46" cy="1054.54" r="12.04"/>
				<path class="st0" d="M1962.22,1038.21c0.85,2.86-2.95,6.52-8.49,8.17c-5.54,1.65-10.72,0.66-11.57-2.2
					c-0.85-2.86,2.95-6.52,8.49-8.17C1956.18,1034.37,1961.36,1035.35,1962.22,1038.21z"/>
				<path class="st0" d="M1967.81,1067.34c0,2.85-2.31,5.16-5.16,5.16c-2.85,0-5.16-2.31-5.16-5.16c0-2.85,2.31-5.16,5.16-5.16
					C1965.5,1062.18,1967.81,1064.49,1967.81,1067.34z"/>
			</g>
			<g>
				
					<ellipse transform="matrix(0.7071 -0.7071 0.7071 0.7071 -123.1409 1610.5676)" class="st21" cx="1882.56" cy="953.93" rx="46.8" ry="46.8"/>
				
					<ellipse transform="matrix(0.7071 -0.7071 0.7071 0.7071 -116.0912 1607.6476)" class="st20" cx="1882.56" cy="943.96" rx="46.8" ry="46.8"/>
				
					<ellipse transform="matrix(0.7071 -0.7071 0.7071 0.7071 -116.0912 1607.6476)" class="st0" cx="1882.56" cy="943.96" rx="41.7" ry="41.7"/>
				<circle class="st8" cx="1882.56" cy="948.27" r="26.55"/>
				<circle class="st9" cx="1882.56" cy="948.27" r="12.2"/>
				
					<ellipse transform="matrix(0.9585 -0.2852 0.2852 0.9585 -188.5125 575.1455)" class="st0" cx="1880.25" cy="934.75" rx="10.61" ry="5.48"/>
				<circle class="st0" cx="1890.86" cy="961.25" r="5.23"/>
			</g>
			<path class="st22" d="M1984.89,1167.78c-5.09,13.1-12.39,25.17-21.47,35.8c-24.2,28.4-60.99,46.52-102.21,46.52
				c-5.45,0-10.81-0.32-16.06-0.93c-6.28-0.72-12.41-1.89-18.37-3.42c-10.79-2.79-21.01-6.86-30.51-12.02
				c-26.83-14.56-47.83-37.9-58.74-65.93c-6.52-16.73,9.34-33.69,26.5-28.47c14.19,4.3,29.3,7.7,45.11,10.03
				c10.74,1.6,21.79,2.71,33.11,3.3c6.26,0.33,12.57,0.49,18.97,0.49c9.7,0,19.25-0.39,28.59-1.15c11.56-0.9,22.83-2.36,33.72-4.34
				c12.11-2.19,23.76-4.99,34.85-8.36C1975.55,1134.11,1991.4,1151.07,1984.89,1167.78z"/>
			<path class="st23" d="M1963.42,1203.58c-24.2,28.4-60.99,46.52-102.21,46.52c-5.45,0-10.81-0.32-16.06-0.93
				c-0.05-1.09-0.09-2.19-0.09-3.3c0-36.86,29.88-66.74,66.74-66.74C1932.61,1179.13,1951.19,1188.65,1963.42,1203.58z"/>
			<path class="st24" d="M1842.44,1156.5c0,14.16-7.6,25.61-16.98,25.61c-9.38,0-16.99-11.46-16.99-25.61
				c0-2.49,0.23-4.88,0.67-7.14c10.74,1.6,21.79,2.71,33.11,3.3C1842.37,1153.91,1842.44,1155.19,1842.44,1156.5z"/>
			<path class="st24" d="M1923.53,1147.67v0.02c0,14.16-7.6,25.61-16.98,25.61c-8.41,0-15.39-9.2-16.75-21.29
				C1901.37,1151.1,1912.63,1149.64,1923.53,1147.67z"/>
			<path class="st24" d="M1830.1,1230.54c0,5.69-1.23,10.96-3.31,15.21c-10.79-2.79-21.01-6.86-30.51-12.02
				c-0.09-1.04-0.14-2.12-0.14-3.19c0-14.16,7.62-25.63,16.99-25.63C1822.5,1204.91,1830.1,1216.38,1830.1,1230.54z"/>
			<path class="st20" d="M1759.67,1323.13c-2.02,12.02,7.88,31.3-4.33,53.43c-6.69,12.12-14.58,15.24-13,20.29
				c3.3,10.54,39.64,3.32,92.44,8.12c54.81,4.98,60.62,16.84,98.21,12.85c31.19-3.31,25.98-11.35,63.55-16.23
				c29.59-3.85,45.98-0.57,88.1-6.76c33.7-4.95,37.4-9.13,37.55-11.5c0.43-6.62-26.45-6.55-43.33-24.35
				c-17.52-18.46-8.04-39.04-15.17-55.46C2035.9,1239.42,1768.69,1269.46,1759.67,1323.13z"/>
			<g>
				<g>
					
						<ellipse transform="matrix(0.2298 -0.9732 0.9732 0.2298 336.4366 3050.5227)" class="st25" cx="2095.47" cy="1312.71" rx="11.55" ry="11.55"/>
				</g>
				<g>
					
						<ellipse transform="matrix(0.2298 -0.9732 0.9732 0.2298 205.5284 2963.4075)" class="st25" cx="1974.98" cy="1351.86" rx="11.55" ry="11.55"/>
				</g>
				<g>
					<circle class="st25" cx="2083.92" cy="1342.95" r="8.91"/>
				</g>
				<g>
					<circle class="st25" cx="2041.01" cy="1351.58" r="24.25"/>
				</g>
				<path class="st25" d="M2010.8,1376.56c0,3.49-2.83,6.32-6.32,6.32s-6.32-2.83-6.32-6.32c0-3.49,2.83-6.32,6.32-6.32
					S2010.8,1373.07,2010.8,1376.56z"/>
				<path class="st25" d="M2055.59,1310.43c0,3.49-2.83,6.32-6.32,6.32c-3.49,0-6.32-2.83-6.32-6.32c0-3.49,2.83-6.32,6.32-6.32
					C2052.76,1304.11,2055.59,1306.94,2055.59,1310.43z"/>
				<path class="st25" d="M2111,1337.02c0,1-0.81,1.81-1.81,1.81s-1.81-0.81-1.81-1.81c0-1,0.81-1.81,1.81-1.81
					S2111,1336.02,2111,1337.02z"/>
			</g>
			<g>
				<g>
					<path class="st26" d="M1706.13,969.44c0,3.53-2.87,6.4-6.4,6.4c-3.53,0-6.4-2.87-6.4-6.4c0-3.53,2.86-6.4,6.4-6.4
						C1703.26,963.04,1706.13,965.91,1706.13,969.44z"/>
				</g>
				<g>
					<circle class="st26" cx="1684.38" cy="995.44" r="11.74"/>
				</g>
				<g>
					<path class="st26" d="M1677.16,1019.63c0,3.19-2.59,5.78-5.78,5.78s-5.78-2.59-5.78-5.78c0-3.19,2.59-5.78,5.78-5.78
						S1677.16,1016.44,1677.16,1019.63z"/>
				</g>
				<g>
					<path class="st26" d="M1699.83,1020.53c0,3.59-2.91,6.5-6.5,6.5c-3.59,0-6.5-2.91-6.5-6.5s2.91-6.5,6.5-6.5
						C1696.92,1014.04,1699.83,1016.95,1699.83,1020.53z"/>
				</g>
				<g>
					<circle class="st26" cx="1671.38" cy="1042.92" r="10.83"/>
				</g>
			</g>
		</g>
	</g>
	<g>
		<ellipse class="st1" cx="1870.59" cy="727.71" rx="191.72" ry="14.54"/>
		<g>
			<path class="st27" d="M1779.13,616.39c0,0,6.33,42.94-28.04,31.98c-34.37-10.96-39.9-40.4-64.42-24
				c-24.53,16.4,17.14,82.49,50.18,87.64c33.03,5.15,72.28-43.75,69.15-82.76c-3.12-39.01-18.49-32.59-18.49-32.59L1779.13,616.39z"
				/>
			<path class="st27" d="M2032.54,628.77c0,0,3.5,25.89-28.55,42.44c-32.05,16.55-56.78-0.35-62.52,28.58
				c-5.75,28.94,70.45,46.21,97.45,26.49c27-19.72,32.18-85.76,11.48-113.68c-23.31-31.44-25.88-3.71-25.88-3.71L2032.54,628.77z"/>
			<path class="st27" d="M1892,201.65c140.54-20.39,271.53,136.73,243.61,284.05c-27.92,147.32-176.21,164.65-330.27,142.51
				C1566.92,593.94,1580.03,246.91,1892,201.65z"/>
			<path class="st27" d="M2090.36,305.86c0,0,27.92,3.37,45.74,31.67l-12.52,3.21c0,0,16.85,8.24,24.55,40.01
				c7.7,31.77,16.37,39.48,16.37,39.48s-6.74,1.39-13.96-5.56c0,0,21.18,29.15,4.33,78.74c-16.85,49.59-6.74,57.77-6.74,57.77
				s-10.11,0.48-15.41-13.48c0,0-18.54,51.19-82.81,58.58C1985.64,603.66,2090.36,305.86,2090.36,305.86z"/>
			<path class="st27" d="M1697.28,305.86c0,0-27.92,3.37-45.74,31.67l12.52,3.21c0,0-16.85,8.24-24.55,40.01
				c-7.7,31.77-16.37,39.48-16.37,39.48s6.74,1.39,13.96-5.56c0,0-21.18,29.15-4.33,78.74c16.85,49.59,6.74,57.77,6.74,57.77
				s10.11,0.48,15.41-13.48c0,0,18.54,51.19,82.81,58.58C1801.99,603.66,1697.28,305.86,1697.28,305.86z"/>
			<g>
				<path class="st28" d="M2007.59,375.59c0,62.82-50.92,113.76-113.74,113.76c-62.84,0-113.76-50.93-113.76-113.76
					s50.92-113.76,113.76-113.76C1956.67,261.84,2007.59,312.77,2007.59,375.59z"/>
				<path class="st27" d="M2007.59,359.92c0,62.82-50.92,113.76-113.74,113.76c-62.84,0-113.76-50.93-113.76-113.76
					s50.92-113.76,113.76-113.76C1956.67,246.17,2007.59,297.1,2007.59,359.92z"/>
				<circle class="st0" cx="1893.84" cy="359.92" r="101.35"/>
				<circle class="st29" cx="1893.84" cy="370.39" r="64.54"/>
				<circle class="st30" cx="1893.84" cy="370.39" r="29.66"/>
				
					<ellipse transform="matrix(0.9585 -0.2852 0.2852 0.9585 -17.8331 552.6126)" class="st0" cx="1888.23" cy="337.53" rx="25.79" ry="13.33"/>
				<circle class="st0" cx="1914.02" cy="401.94" r="12.72"/>
			</g>
			<g>
				<g>
					<path class="st27" d="M1936.33,233.4l-10.57-3.26c0.71-2.32,18-56.99,61.36-68c29.02-7.37,62.04,6.8,98.09,42.12l-7.74,7.9
						c-33.1-32.42-62.56-45.64-87.6-39.32C1952.54,182.29,1936.48,232.89,1936.33,233.4z"/>
				</g>
				<g>
					<circle class="st27" cx="2091.94" cy="218.45" r="24.35"/>
				</g>
			</g>
			<g>
				<g>
					<path class="st27" d="M1826.57,233.4l10.57-3.26c-0.71-2.32-18-56.99-61.36-68c-29.02-7.37-62.04,6.8-98.09,42.12l7.74,7.9
						c33.1-32.42,62.56-45.64,87.6-39.32C1810.36,182.29,1826.42,232.89,1826.57,233.4z"/>
				</g>
				<g>
					<circle class="st27" cx="1670.96" cy="218.45" r="24.35"/>
				</g>
			</g>
			<path class="st31" d="M1927.07,533.04c0,21.44-17.4,38.84-38.84,38.84c-21.44,0-38.84-17.39-38.84-38.84
				c0-15.54,9.12-23.37,22.29-26.52c5.02-1.2,10.62-1.71,16.55-1.71c5.92,0,11.53,0.51,16.55,1.71
				C1917.95,509.67,1927.07,517.5,1927.07,533.04z"/>
			<path class="st0" d="M1904.78,506.52l-2.51,25.28h-28.07l-2.51-25.28c5.02-1.2,10.62-1.71,16.55-1.71
				C1894.15,504.81,1899.76,505.32,1904.78,506.52z"/>
			<path class="st32" d="M2007.59,359.92h-227.5c0-62.82,50.92-113.76,113.76-113.76C1956.67,246.17,2007.59,297.1,2007.59,359.92z"
				/>
			<g>
				<path class="st27" d="M1890.3,208.56c0,0-14.2-19.22-36.34-19.32C1853.96,189.24,1894.87,115.65,1890.3,208.56z"/>
				<path class="st27" d="M1895.38,208.56c0,0-11.07-74.78,40.92-57.45C1936.3,151.1,1914.02,164.58,1895.38,208.56z"/>
			</g>
			<path class="st27" d="M1662.64,510.1c0,0-44.07,41.35-20.66,63.68c23.4,22.33,34.43,49.6,17.98,43.78
				c-11.22-3.97-14.53-9.79-26.67-5.06c-12.14,4.74-9.63,27.04-21.01,26.57c-11.17-0.46-4.62-22.61-11.88-25.77
				c-7.25-3.16-13.59,2.16-20.67-9.31c-7.08-11.47,17.79-13.81,17.26-38.94c-0.52-25.14,19.59-53.96,42.04-71.21
				C1661.48,476.59,1671.55,496.12,1662.64,510.1z"/>
			<path class="st27" d="M2129.12,510.1c0,0,44.07,41.35,20.66,63.68c-23.4,22.33-34.43,49.6-17.98,43.78
				c11.22-3.97,14.53-9.79,26.67-5.06c12.14,4.74,9.63,27.04,21.01,26.57c11.17-0.46,4.62-22.61,11.88-25.77
				c7.25-3.16,13.59,2.16,20.67-9.31c7.08-11.47-17.79-13.81-17.26-38.94c0.52-25.14-19.59-53.96-42.04-71.21
				C2130.29,476.59,2120.21,496.12,2129.12,510.1z"/>
			<g>
				<circle class="st33" cx="2096.77" cy="515.07" r="11.72"/>
				
					<ellipse transform="matrix(0.2298 -0.9732 0.9732 0.2298 1073.8342 2461.1309)" class="st33" cx="2091.8" cy="552.14" rx="13.96" ry="13.96"/>
				
					<ellipse transform="matrix(0.9239 -0.3827 0.3827 0.9239 -55.0355 823.8342)" class="st33" cx="2043.33" cy="550.26" rx="19.74" ry="19.74"/>
				
					<ellipse transform="matrix(0.7071 -0.7071 0.7071 0.7071 232.5652 1615.0369)" class="st33" cx="2065.8" cy="526.79" rx="7.38" ry="7.38"/>
				
					<ellipse transform="matrix(0.7071 -0.7071 0.7071 0.7071 178.4751 1605.5347)" class="st33" cx="2027.29" cy="587.33" rx="7.38" ry="7.38"/>
				<circle class="st33" cx="2070.3" cy="576.38" r="7.38"/>
				
					<ellipse transform="matrix(0.1602 -0.9871 0.9871 0.1602 1082.5067 2446.9919)" class="st33" cx="1979.3" cy="587.33" rx="28.89" ry="28.89"/>
			</g>
			<g>
				<g>
					<path class="st34" d="M1665.7,398.38c-1.92-4.74,0.36-10.14,5.1-12.06c4.74-1.92,10.14,0.36,12.06,5.1
						c1.92,4.74-0.36,10.14-5.1,12.06C1673.02,405.4,1667.62,403.12,1665.7,398.38z"/>
				</g>
				<g>
					
						<ellipse transform="matrix(0.3893 -0.9211 0.9211 0.3893 680.6607 1759.1355)" class="st34" cx="1666.9" cy="366.28" rx="11.03" ry="11.03"/>
				</g>
				<g>
					
						<ellipse transform="matrix(0.1106 -0.9939 0.9939 0.1106 1163.593 2006.7113)" class="st34" cx="1702.95" cy="353.25" rx="15.6" ry="15.6"/>
				</g>
				<g>
					<path class="st34" d="M1688.07,379.31c-1.21-2.98,0.23-6.39,3.21-7.6c2.98-1.21,6.39,0.23,7.6,3.21
						c1.21,2.98-0.23,6.39-3.21,7.6C1692.68,383.73,1689.28,382.29,1688.07,379.31z"/>
				</g>
				<g>
					<path class="st34" d="M1698.27,323.54c-1.21-2.98,0.23-6.39,3.21-7.6c2.98-1.21,6.39,0.23,7.6,3.21
						c1.21,2.98-0.23,6.39-3.21,7.6C1702.89,327.96,1699.48,326.52,1698.27,323.54z"/>
				</g>
				<g>
					<path class="st34" d="M1670.04,344.34c-1.21-2.98,0.23-6.39,3.21-7.6c2.98-1.21,6.39,0.23,7.6,3.21
						c1.21,2.98-0.23,6.39-3.21,7.6C1674.65,348.76,1671.25,347.32,1670.04,344.34z"/>
				</g>
				
					<ellipse transform="matrix(0.3893 -0.9211 0.9211 0.3893 779.0983 1789.2179)" class="st34" cx="1738.81" cy="307.08" rx="22.82" ry="22.82"/>
			</g>
		</g>
	</g>
	<g>
		<ellipse class="st1" cx="468.17" cy="1413.46" rx="232.53" ry="14.54"/>
		<g>
			<g>
				<path class="st35" d="M852.38,1231.06c0,0,12.38,22.43,22.43,27.78c10.04,5.36,16.74-76.98,7.36-84.34
					c-9.37-7.36-80.84,23.82-74.3,37.49c4.11,8.6,27.77,9.03,27.77,9.03L852.38,1231.06z"/>
				<g>
					<path class="st36" d="M643.86,1214.66c0,0,33.47-8.03,46.52-1.67c13.05,6.36-36.15,52.21-36.15,52.21l-19.41-30.12
						L643.86,1214.66z"/>
					<path class="st36" d="M666.07,1276.67c0,0,31.34-17.16,39.71-11.47c8.37,5.69-9.04,39.16-9.04,39.16L666.07,1276.67z"/>
					<path class="st36" d="M720.5,1311.39c0,0,8.79-34.72,21.17-37.06c12.38-2.34,23.7,33.38,23.7,33.38L720.5,1311.39z"/>
					<path class="st36" d="M784.58,1297.74c0,0-12.95-27.11-6.21-35.26c6.73-8.15,33.19,8.82,33.19,8.82L784.58,1297.74z"/>
					<path class="st36" d="M821.22,1268.33c0,0-16.18-21.57-11.7-29.94c4.49-8.36,30.77,1.9,30.77,1.9L821.22,1268.33z"/>
				</g>
				<path class="st35" d="M648.88,1193.57c0,0-3.35,79.66,60.25,104.43c63.59,24.77,126.52-76.98,126.52-76.98l12.94-0.89
					l3.79,10.93c0,0-47.31,102.71-120.42,120.49c-74.3,18.07-167.42-65.6-191.52-155.3l48.2-40.16L648.88,1193.57z"/>
			</g>
			<path class="st37" d="M675.98,1113.12c0,0,118.28,8.45,145.51,92s-46,84.49-46.94,43.65c0,0-10.8,21.12-18.31,14.55
				c-7.51-6.57-0.47-37.55-0.47-37.55s-7.51-60.55-79.8-76.51l-13.14-25.35L675.98,1113.12z"/>
			<path class="st37" d="M258.95,1113.12c0,0-118.28,8.45-145.51,92c-27.22,83.55,46,84.49,46.94,43.65c0,0,10.8,21.12,18.31,14.55
				c7.51-6.57,0.47-37.55,0.47-37.55s7.51-60.55,79.8-76.51l13.14-25.35L258.95,1113.12z"/>
			<g>
				<path class="st36" d="M704.38,881.24c-7.01,1.08-14.11,3.1-19.83,7.08c-6.89,4.79-11.76,12.41-11.98,24.67
					c-0.04,2.71-0.11,5.38-0.2,8.03c-0.3,9.43-0.84,18.53-1.92,27.15c-1.54,12.25-4.13,23.51-8.55,33.34
					c-2.83,6.3-6.41,12.01-10.95,17.01c-9.96,10.98-24.5,18.5-45.79,21.25c-59.69,7.71-25.02-50.06-25.02-50.06
					s16.62-1.01,26.18-21.24c2.75-5.81,4.91-13.22,5.92-22.65c0.34-3.12,0.56-6.47,0.63-10.04c0.17-9.31,2.48-17.69,6.38-25.02
					c3.13-5.9,7.29-11.11,12.22-15.6c7.71-7.01,17.28-12.21,27.66-15.35c7.39-2.24,15.18-3.43,23-3.5
					c14.19-0.11,28.44,3.49,40.51,11.34C746.79,883.36,726.04,877.85,704.38,881.24z"/>
			</g>
			<g>
				<path class="st36" d="M243.16,881.24c7.01,1.08,14.11,3.1,19.83,7.08c6.89,4.79,11.76,12.41,11.98,24.67
					c0.04,2.71,0.11,5.38,0.2,8.03c0.3,9.43,0.84,18.53,1.92,27.15c1.54,12.25,4.13,23.51,8.55,33.34
					c2.83,6.3,6.41,12.01,10.95,17.01c9.96,10.98,24.5,18.5,45.79,21.25c59.69,7.71,25.02-50.06,25.02-50.06
					s-16.62-1.01-26.18-21.24c-2.75-5.81-4.91-13.22-5.92-22.65c-0.34-3.12-0.56-6.47-0.63-10.04c-0.17-9.31-2.48-17.69-6.38-25.02
					c-3.13-5.9-7.29-11.11-12.22-15.6c-7.71-7.01-17.28-12.21-27.66-15.35c-7.39-2.24-15.18-3.43-23-3.5
					c-14.19-0.11-28.44,3.49-40.51,11.34C200.74,883.36,221.49,877.85,243.16,881.24z"/>
			</g>
			<path class="st35" d="M722.04,1248c-1.44-132.88-53.44-345.19-252.76-343.75c-199.32-1.44-251.31,210.87-252.76,343.75
				c-1.2,110.31,75.25,224.61,183.06,142.89c41.27-31.28,98.12-31.28,139.39,0C646.79,1472.61,723.24,1358.31,722.04,1248z"/>
			<g>
				<circle class="st38" cx="355.06" cy="1065.09" r="49.8"/>
				
					<ellipse transform="matrix(0.9189 -0.3946 0.3946 0.9189 -389.198 226.0505)" class="st35" cx="355.06" cy="1059.39" rx="49.8" ry="49.8"/>
				
					<ellipse transform="matrix(0.2255 -0.9743 0.9743 0.2255 -757.1068 1166.4572)" class="st0" cx="355.06" cy="1059.39" rx="44.37" ry="44.37"/>
				
					<ellipse transform="matrix(0.227 -0.9739 0.9739 0.227 -761.7406 1168.2428)" class="st39" cx="355.06" cy="1063.98" rx="28.25" ry="28.25"/>
				
					<ellipse transform="matrix(0.1595 -0.9872 0.9872 0.1595 -751.9345 1244.7485)" class="st40" cx="355.06" cy="1063.98" rx="12.98" ry="12.98"/>
				<path class="st0" d="M363.43,1046.37c0.92,3.09-3.18,7.03-9.16,8.81c-5.98,1.78-11.57,0.72-12.48-2.37
					c-0.92-3.09,3.18-7.03,9.16-8.81S362.51,1043.28,363.43,1046.37z"/>
				<path class="st0" d="M369.47,1077.79c0,3.08-2.49,5.57-5.57,5.57s-5.57-2.49-5.57-5.57s2.49-5.57,5.57-5.57
					S369.47,1074.71,369.47,1077.79z"/>
			</g>
			<g>
				<circle class="st38" cx="584.37" cy="1065.09" r="49.8"/>
				
					<ellipse transform="matrix(0.7071 -0.7071 0.7071 0.7071 -577.9465 723.4991)" class="st35" cx="584.37" cy="1059.39" rx="49.8" ry="49.8"/>
				
					<ellipse transform="matrix(0.7071 -0.7071 0.7071 0.7071 -577.9465 723.4991)" class="st0" cx="584.37" cy="1059.39" rx="44.37" ry="44.37"/>
				
					<ellipse transform="matrix(0.5699 -0.8217 0.8217 0.5699 -622.9533 937.8358)" class="st39" cx="584.37" cy="1063.98" rx="28.25" ry="28.25"/>
				
					<ellipse transform="matrix(0.7071 -0.7071 0.7071 0.7071 -581.189 724.8422)" class="st40" cx="584.37" cy="1063.98" rx="12.98" ry="12.98"/>
				<path class="st0" d="M592.73,1046.37c0.92,3.09-3.18,7.03-9.16,8.81c-5.98,1.78-11.57,0.72-12.48-2.37
					c-0.92-3.09,3.18-7.03,9.16-8.81S591.81,1043.28,592.73,1046.37z"/>
				<path class="st0" d="M598.77,1077.79c0,3.08-2.49,5.57-5.57,5.57c-3.08,0-5.57-2.49-5.57-5.57s2.49-5.57,5.57-5.57
					C596.28,1072.22,598.77,1074.71,598.77,1077.79z"/>
			</g>
			<g>
				<circle class="st38" cx="469.71" cy="1107.82" r="49.8"/>
				<circle class="st35" cx="469.71" cy="1102.12" r="49.8"/>
				<circle class="st0" cx="469.71" cy="1102.12" r="44.37"/>
				<circle class="st39" cx="469.71" cy="1106.71" r="28.25"/>
				<circle class="st40" cx="469.71" cy="1106.71" r="12.98"/>
				<path class="st0" d="M478.08,1089.1c0.92,3.09-3.18,7.03-9.16,8.81s-11.57,0.72-12.49-2.37c-0.92-3.09,3.18-7.03,9.16-8.81
					C471.57,1084.95,477.16,1086.01,478.08,1089.1z"/>
				<path class="st0" d="M484.12,1120.52c0,3.08-2.49,5.57-5.57,5.57s-5.57-2.49-5.57-5.57c0-3.08,2.49-5.57,5.57-5.57
					S484.12,1117.44,484.12,1120.52z"/>
			</g>
			<ellipse class="st41" cx="469.71" cy="1232.69" rx="159.25" ry="49"/>
			<path class="st42" d="M610.83,1232.69c0,12.08-20.33,22.87-52.17,29.94c-24.27,5.4-55.23,8.63-88.95,8.63s-64.66-3.22-88.93-8.63
				c-31.84-7.07-52.17-17.86-52.17-29.94c0-7.52,7.87-14.55,21.51-20.47c7.66-3.35,17.16-6.34,28.1-8.89
				c2.24-0.52,4.53-1.02,6.89-1.5c8.36-1.72,17.41-3.19,27.06-4.37c17.57-2.13,37.05-3.33,57.54-3.33c21.28,0,41.47,1.29,59.56,3.6
				c9.61,1.22,18.63,2.72,26.92,4.49c2.38,0.5,4.69,1.02,6.94,1.57c11.02,2.67,20.51,5.78,28.06,9.27
				C603.67,1218.8,610.83,1225.51,610.83,1232.69z"/>
			<path class="st43" d="M558.66,1262.63c-24.27,5.4-55.23,8.63-88.95,8.63s-64.66-3.22-88.93-8.63
				c14.5-13.96,48.86-23.77,88.93-23.77C509.8,1238.86,544.16,1248.67,558.66,1262.63z"/>
			<g>
				<path class="st10" d="M378.51,1208.19c0,13.53-6.39,24.5-14.28,24.5c-7.09,0-12.98-8.86-14.1-20.47
					c7.66-3.35,17.16-6.34,28.1-8.89C378.42,1204.9,378.51,1206.52,378.51,1208.19z"/>
				<path class="st10" d="M412.17,1197.45c-1.43,10.95-7.12,19.13-13.94,19.13c-5.87,0-10.92-6.08-13.12-14.76
					C393.47,1200.1,402.53,1198.63,412.17,1197.45z"/>
			</g>
			<g>
				<path class="st10" d="M591.19,1213.06c-1.31,11.2-7.07,19.63-14,19.63c-7.89,0-14.3-10.97-14.3-24.5c0-1.5,0.07-2.97,0.23-4.4
					C574.16,1206.45,583.64,1209.57,591.19,1213.06z"/>
				<path class="st10" d="M556.19,1202.21c-2.24,8.48-7.21,14.37-12.99,14.37c-6.76,0-12.44-8.05-13.92-18.86
					C538.88,1198.94,547.9,1200.44,556.19,1202.21z"/>
			</g>
			<g>
				
					<ellipse transform="matrix(0.7071 -0.7071 0.7071 0.7071 -805.9698 811.1537)" class="st42" cx="576.16" cy="1378.47" rx="9.15" ry="9.15"/>
				
					<ellipse transform="matrix(0.2414 -0.9704 0.9704 0.2414 -891.0779 1649.2897)" class="st42" cx="609.38" cy="1394.6" rx="18.78" ry="18.78"/>
				
					<ellipse transform="matrix(0.1607 -0.987 0.987 0.1607 -825.6846 1795.3279)" class="st42" cx="642.74" cy="1383.14" rx="9.39" ry="9.39"/>
				<circle class="st42" cx="666.07" cy="1378.47" r="7.28"/>
				<circle class="st42" cx="668.48" cy="1346.21" r="16.73"/>
				<path class="st42" d="M628.28,1364.63c0,2.53-2.05,4.57-4.57,4.57s-4.57-2.05-4.57-4.57s2.05-4.57,4.57-4.57
					S628.28,1362.1,628.28,1364.63z"/>
				<circle class="st42" cx="605.05" cy="1365.95" r="2.17"/>
				<path class="st42" d="M640.86,1353.25c0,2.36-1.91,4.27-4.27,4.27s-4.27-1.91-4.27-4.27c0-2.36,1.91-4.27,4.27-4.27
					S640.86,1350.89,640.86,1353.25z"/>
			</g>
			<g>
				
					<ellipse transform="matrix(0.9532 -0.3023 0.3023 0.9532 -265.9913 212.7765)" class="st41" cx="554.28" cy="965.55" rx="9.15" ry="9.15"/>
				<path class="st41" d="M515.64,927.21c4.79-9.19,16.14-12.76,25.33-7.97s12.76,16.14,7.97,25.33
					c-4.79,9.19-16.14,12.76-25.33,7.97C514.41,947.75,510.84,936.4,515.64,927.21z"/>
				
					<ellipse transform="matrix(0.9532 -0.3023 0.3023 0.9532 -258.0392 193.8887)" class="st41" cx="497.4" cy="930.63" rx="9.39" ry="9.39"/>
				<path class="st41" d="M468.1,920.61c1.86-3.57,6.26-4.95,9.82-3.09c3.57,1.86,4.95,6.26,3.09,9.82
					c-1.86,3.57-6.26,4.95-9.82,3.09C467.63,928.58,466.24,924.18,468.1,920.61z"/>
				<path class="st41" d="M442.68,943.73c4.27-8.19,14.38-11.37,22.57-7.1c8.19,4.27,11.37,14.38,7.1,22.57
					c-4.27,8.19-14.38,11.37-22.57,7.1C441.58,962.03,438.4,951.93,442.68,943.73z"/>
				<path class="st41" d="M501.67,953.73c1.17-2.24,3.93-3.11,6.17-1.94c2.24,1.17,3.11,3.93,1.94,6.17
					c-1.17,2.24-3.93,3.11-6.17,1.94C501.37,958.73,500.5,955.97,501.67,953.73z"/>
				<path class="st41" d="M520.96,962.29c0.55-1.06,1.86-1.47,2.92-0.92c1.06,0.55,1.47,1.86,0.92,2.92
					c-0.55,1.06-1.86,1.47-2.92,0.92C520.82,964.66,520.41,963.35,520.96,962.29z"/>
				<path class="st41" d="M485.26,958c1.09-2.09,3.67-2.9,5.76-1.81c2.09,1.09,2.9,3.67,1.81,5.76c-1.09,2.09-3.67,2.9-5.76,1.81
					C484.98,962.67,484.17,960.09,485.26,958z"/>
			</g>
		</g>
	</g>
	<g>
		<ellipse class="st1" cx="499.93" cy="733.25" rx="144.85" ry="11.17"/>
		<g>
			<g>
				<g>
					<path class="st42" d="M625.52,707.66c-10.11-25.52-57.29-1.44-57.29-1.44c13.48-63.07,9.63-120.36,9.63-120.36l-3.85-15.89
						c0,0-33.22-13-22.63,23.11c8.22,28.01,0.5,98.05-3.38,128.04c-0.96,7.46,5.06,13.97,12.57,13.6
						C585.66,733.49,633.76,728.45,625.52,707.66z"/>
					<path class="st42" d="M436.01,593.08c10.59-36.11-22.63-23.11-22.63-23.11l-3.85,15.89c0,0-3.85,57.29,9.63,120.36
						c0,0-47.18-24.07-57.29,1.44c-8.24,20.79,39.86,25.83,64.94,27.05c7.52,0.37,13.54-6.14,12.58-13.6
						C435.51,691.12,427.79,621.09,436.01,593.08z"/>
				</g>
				<path class="st44" d="M363.56,199.9c0,0-43.13,8.37-67.06,45.2c0,0,6.34,6.07,16.51,0c0,0-23.94,22.27-24.25,48.69
					c-0.31,26.42-7.92,27.86-7.92,27.86s11.06,2.17,15.66-4.69c0,0,0.99,33.22-10.57,60.66c0,0,6.86,1.97,12.28-7.22
					c0,0-5.42,18.69-4.33,42.38c1.08,23.69-5.11,45.36-5.11,45.36s5.78,2.09,9.44-5.42c0,0,8.67,29.25,1.44,54.88
					c-7.22,25.64,1.08,36.83,1.08,36.83s2.76-1.08,6.98-14.44c0,0,10.71,24.55,16.13,41.89c5.42,17.33,17.69,23.11,17.69,23.11
					l1.08-12.64c0,0,34.66,31.78,52,42.97c0,0,3.97-9.03,2.53-13.72c0,0,34.3,24.55,60.66,33.22c0,0,4.33-9.03,3.61-15.17
					c0,0,20.1,5.06,25.4,19.14c0,0,3.8-1.44,8.16-12.28l-2.38-451.35L363.56,199.9z"/>
				<path class="st44" d="M625.88,199.9c0,0,43.13,8.37,67.06,45.2c0,0-6.34,6.07-16.51,0c0,0,23.94,22.27,24.25,48.69
					c0.31,26.42,7.92,27.86,7.92,27.86s-11.06,2.17-15.66-4.69c0,0-0.99,33.22,10.57,60.66c0,0-6.86,1.97-12.28-7.22
					c0,0,5.42,18.69,4.33,42.38c-1.08,23.69,5.11,45.36,5.11,45.36s-5.78,2.09-9.44-5.42c0,0-8.67,29.25-1.44,54.88
					c7.22,25.64-1.08,36.83-1.08,36.83s-2.76-1.08-6.98-14.44c0,0-10.71,24.55-16.13,41.89c-5.42,17.33-17.69,23.11-17.69,23.11
					l-1.08-12.64c0,0-34.66,31.78-52,42.97c0,0-3.97-9.03-2.53-13.72c0,0-34.3,24.55-60.66,33.22c0,0-4.33-9.03-3.61-15.17
					c0,0-20.1,5.06-25.4,19.14c0,0-3.8-1.44-8.16-12.28l2.38-451.35L625.88,199.9z"/>
				<path class="st44" d="M486.8,153.38c115.06-0.08,211.83,70.77,201.72,194.98c-10.11,124.21,2.41,287.42-201.72,272.98
					C282.67,606.9,311.56,460.8,311.56,403.25C311.56,348.36,266.19,153.54,486.8,153.38z"/>
				<g>
					<path class="st44" d="M319.2,443.64c0,0-61.26,16.38-40.22-42.32c21.03-58.7-56.5-93.17-69.57-13.18
						c-13.07,79.99,67.84,95.17,100.25,70.14l20.62-3.42L319.2,443.64z"/>
					<g>
						<path class="st42" d="M274.4,363.57c-3.22-1.11,9.96-18.8,14.17-17.77S279.09,365.19,274.4,363.57z"/>
						<path class="st42" d="M263.55,354.29c-3.35-0.61,7-20.09,11.32-19.71C279.19,334.95,268.43,355.18,263.55,354.29z"/>
						<path class="st42" d="M250.53,351.05c-3.25,1.02-3.19-21.03,0.81-22.72S255.27,349.56,250.53,351.05z"/>
						<path class="st42" d="M238.75,354.61c-2.42,2.4-12.48-17.22-9.7-20.56C231.82,330.72,242.27,351.12,238.75,354.61z"/>
						<path class="st42" d="M227.49,362.35c-1.32,3.14-18.12-11.13-16.83-15.28C211.95,342.93,229.4,357.77,227.49,362.35z"/>
					</g>
					<path class="st45" d="M272.68,387.33c3.87-11.46-3.44-24.28-16.32-28.63c-12.88-4.35-26.46,1.42-30.33,12.88
						C222.16,383.04,268.81,398.79,272.68,387.33z"/>
				</g>
				<g>
					<path class="st44" d="M674.83,443.64c0,0,61.26,16.38,40.22-42.32c-21.03-58.7,56.5-93.17,69.57-13.18
						c13.07,79.99-67.84,95.17-100.25,70.14l-20.62-3.42L674.83,443.64z"/>
					<g>
						<path class="st42" d="M719.63,363.57c3.22-1.11-9.96-18.8-14.17-17.77C701.24,346.82,714.94,365.19,719.63,363.57z"/>
						<path class="st42" d="M730.49,354.29c3.35-0.61-7-20.09-11.32-19.71C714.84,334.95,725.61,355.18,730.49,354.29z"/>
						<path class="st42" d="M743.5,351.05c3.25,1.02,3.19-21.03-0.81-22.72C738.69,326.64,738.77,349.56,743.5,351.05z"/>
						<path class="st42" d="M755.28,354.61c2.42,2.4,12.48-17.22,9.7-20.56C762.21,330.72,751.76,351.12,755.28,354.61z"/>
						<path class="st42" d="M766.54,362.35c1.32,3.14,18.12-11.13,16.83-15.28C782.08,342.93,764.63,357.77,766.54,362.35z"/>
					</g>
					<path class="st45" d="M721.35,387.33c-3.87-11.46,3.44-24.28,16.32-28.63c12.88-4.35,26.46,1.42,30.33,12.88
						C771.88,383.04,725.22,398.79,721.35,387.33z"/>
				</g>
				<path class="st46" d="M639.98,482.49c0,44.79-16.37,82.91-39.21,97.05c-6.14,3.8-12.75,5.87-19.64,5.87
					c-1.74,0-3.48-0.13-5.18-0.38c-0.27-0.04-0.56-0.09-0.83-0.14c-3.35-0.6-6.59-1.7-9.74-3.22c-18.27-8.87-38.88-11.28-59.04-8.74
					c-3.76,0.47-7.59,0.71-11.47,0.71c-3.87,0-7.69-0.24-11.44-0.71c-20.08-2.52-40.63-0.16-58.82,8.72
					c-3.35,1.64-6.84,2.78-10.43,3.33c-0.07,0.01-0.14,0.03-0.21,0.04c-1.71,0.27-3.43,0.4-5.18,0.4c-7.08,0-13.87-2.19-20.17-6.2
					c-22.57-14.4-38.7-52.27-38.7-96.72c0-44.48,16.15-82.38,38.75-96.75c6.28-3.97,13.05-6.15,20.11-6.15
					c1.78,0,3.55,0.14,5.27,0.41c3.63,0.56,7.15,1.69,10.55,3.36c18.19,8.87,38.74,11.22,58.82,8.72c3.75-0.47,7.56-0.71,11.44-0.71
					c3.87,0,7.71,0.24,11.47,0.71c20.15,2.54,40.76,0.11,59.04-8.76c3.38-1.64,6.88-2.76,10.48-3.32c1.74-0.27,3.5-0.41,5.27-0.41
					c7.06,0,13.83,2.18,20.11,6.15C623.84,400.11,639.98,438.01,639.98,482.49z"/>
				<path class="st47" d="M466.62,163.73c0,0-54.03-34.08-66.5-133.84c0,0-39.9,64.84-16.63,166.26
					C383.5,196.15,437.86,216.14,466.62,163.73z"/>
				<g>
					<circle class="st48" cx="495.78" cy="299.18" r="69.19"/>
					
						<ellipse transform="matrix(0.2363 -0.9717 0.9717 0.2363 98.9722 701.5377)" class="st44" cx="495.78" cy="287.81" rx="64.9" ry="64.9"/>
					
						<ellipse transform="matrix(0.2356 -0.9719 0.9719 0.2356 99.2834 701.8359)" class="st0" cx="495.78" cy="287.81" rx="57.82" ry="57.82"/>
					
						<ellipse transform="matrix(0.2229 -0.9748 0.9748 0.2229 98.8685 711.594)" class="st8" cx="495.78" cy="293.78" rx="36.82" ry="36.82"/>
					<circle class="st9" cx="495.78" cy="293.78" r="16.92"/>
					
						<ellipse transform="matrix(0.9585 -0.2852 0.2852 0.9585 -57.9861 151.9284)" class="st0" cx="492.58" cy="275.03" rx="14.71" ry="7.6"/>
					<circle class="st0" cx="507.29" cy="311.78" r="7.26"/>
				</g>
				<g>
					<path class="st0" d="M601.24,385.74c-0.23,1.45-0.54,2.95-0.91,4.44c-3.53,14.13-12.11,24.16-19.17,22.39
						c-7.06-1.75-9.93-14.64-6.41-28.76c0.33-1.31,0.7-2.58,1.11-3.82c1.74-0.27,3.5-0.41,5.27-0.41
						C588.19,379.59,594.96,381.77,601.24,385.74z"/>
					<path class="st0" d="M408.77,412.57c-7.06,1.77-15.65-8.26-19.17-22.39c-0.37-1.5-0.68-2.99-0.91-4.44
						c6.28-3.97,13.05-6.15,20.11-6.15c1.78,0,3.55,0.14,5.27,0.41c0.41,1.24,0.78,2.51,1.11,3.82
						C418.69,397.93,415.82,410.82,408.77,412.57z"/>
				</g>
				<path class="st49" d="M540.55,546.48c0,0.37,0,0.73-0.01,1.1c-0.21,9.24-3.15,17.82-8.05,24.94c-8.65-0.87-17.45-0.7-26.15,0.4
					c-3.76,0.47-7.59,0.71-11.47,0.71c-3.87,0-7.69-0.24-11.44-0.71c-8.96-1.13-18.02-1.28-26.92-0.31
					c-4.84-7.02-7.79-15.44-8.09-24.54c-0.01-0.53-0.03-1.05-0.03-1.58c0-25.44,20.62-46.07,46.07-46.07
					C519.92,500.41,540.55,521.04,540.55,546.48z"/>
				<g>
					<path class="st0" d="M414.88,582.46c-0.21,0.85-0.44,1.68-0.68,2.51c-0.07,0.01-0.14,0.03-0.21,0.04
						c-1.71,0.27-3.43,0.4-5.18,0.4c-7.08,0-13.87-2.19-20.17-6.2c0.2-1.03,0.43-2.07,0.68-3.12c3.52-14.13,12.09-24.16,19.16-22.39
						C415.53,555.45,418.41,568.34,414.88,582.46z"/>
					<path class="st0" d="M600.77,579.54c-6.14,3.8-12.75,5.87-19.64,5.87c-1.74,0-3.48-0.13-5.18-0.38
						c-0.27-0.04-0.56-0.09-0.83-0.14c-0.23-0.8-0.46-1.6-0.66-2.42c-3.53-14.11-0.66-27,6.41-28.76
						c7.06-1.77,15.64,8.26,19.16,22.39C600.31,577.26,600.57,578.4,600.77,579.54z"/>
				</g>
				<path class="st50" d="M575.95,585.02c-3.63-0.57-7.16-1.71-10.57-3.36c-10.38-5.04-21.51-7.99-32.89-9.14
					c-8.65-0.87-17.45-0.7-26.15,0.4c-3.76,0.47-7.59,0.71-11.47,0.71c-3.87,0-7.69-0.24-11.44-0.71
					c-8.96-1.13-18.02-1.28-26.92-0.31c-11.04,1.2-21.83,4.12-31.9,9.03c-3.42,1.67-6.98,2.82-10.64,3.38
					c5.38-15.31,17.82-28.36,34.45-36.95c13.3-6.86,29.31-10.88,46.53-10.88c16.81,0,32.46,3.82,45.58,10.4
					C557.66,556.15,570.48,569.41,575.95,585.02z"/>
			</g>
			<g>
				<circle class="st51" cx="430.8" cy="606.65" r="6.8"/>
				<circle class="st51" cx="446.98" cy="589.98" r="8.23"/>
				<path class="st51" d="M448.14,603.81c0,1.56-1.27,2.83-2.83,2.83s-2.83-1.27-2.83-2.83c0-1.56,1.27-2.83,2.83-2.83
					S448.14,602.25,448.14,603.81z"/>
				<circle class="st51" cx="461.74" cy="610.39" r="11.45"/>
				<circle class="st51" cx="478.29" cy="611.52" r="2.61"/>
				<path class="st51" d="M488.83,600.98c0,2.5-2.03,4.53-4.53,4.53c-2.5,0-4.53-2.03-4.53-4.53s2.03-4.53,4.53-4.53
					C486.8,596.44,488.83,598.47,488.83,600.98z"/>
				<circle class="st51" cx="499.93" cy="616.05" r="14.62"/>
			</g>
			<g>
				<path class="st52" d="M589.26,208.47c-1.55,3.42-5.59,4.93-9,3.38c-3.42-1.55-4.93-5.59-3.38-9c1.55-3.42,5.59-4.93,9-3.38
					C589.3,201.02,590.81,205.05,589.26,208.47z"/>
				<path class="st52" d="M612.19,200.59c-1.88,4.14-6.76,5.97-10.9,4.09c-4.14-1.88-5.97-6.76-4.09-10.9
					c1.88-4.14,6.76-5.97,10.9-4.09C612.24,191.57,614.07,196.45,612.19,200.59z"/>
				<path class="st52" d="M600.03,210.25c-0.65,1.42-2.33,2.05-3.75,1.41c-1.42-0.65-2.05-2.33-1.41-3.75
					c0.65-1.42,2.33-2.05,3.75-1.41C600.04,207.15,600.67,208.83,600.03,210.25z"/>
				
					<ellipse transform="matrix(0.9603 -0.279 0.279 0.9603 -37.6901 178.9176)" class="st52" cx="609.69" cy="221.86" rx="11.45" ry="11.45"/>
				<path class="st52" d="M626.66,230.82c-0.6,1.31-2.14,1.89-3.45,1.29c-1.31-0.6-1.89-2.14-1.29-3.45
					c0.6-1.31,2.14-1.89,3.45-1.29C626.67,227.96,627.25,229.51,626.66,230.82z"/>
				<path class="st52" d="M638.24,224.51c-1.04,2.28-3.72,3.29-6,2.25c-2.28-1.04-3.29-3.72-2.25-6c1.04-2.28,3.72-3.29,6-2.25
					C638.27,219.54,639.28,222.23,638.24,224.51z"/>
				
					<ellipse transform="matrix(0.7071 -0.7071 0.7071 0.7071 16.3678 525.1672)" class="st52" cx="642.12" cy="242.83" rx="14.62" ry="14.62"/>
			</g>
		</g>
	</g>
	<g>
		<ellipse class="st1" cx="1198.35" cy="733.78" rx="116.86" ry="10.64"/>
		<g>
			<g>
				<path class="st53" d="M1390.72,133.92c-0.77-6.54-8.68-9.36-13.39-4.76c-28.28,27.58-56.04,45.87-56.04,45.87l-18.88,37
					l55.7,26.57C1392.29,197.74,1393.3,155.77,1390.72,133.92z"/>
				<path class="st53" d="M1004.2,133.92c0.77-6.54,8.68-9.36,13.39-4.76c28.28,27.58,56.04,45.87,56.04,45.87l18.88,37l-55.7,26.57
					C1002.64,197.74,1001.63,155.77,1004.2,133.92z"/>
			</g>
			<path class="st54" d="M1292.17,707.66c-10.11-25.52-57.29-1.44-57.29-1.44c13.48-63.07,9.63-120.36,9.63-120.36l-3.85-15.89
				c0,0-33.22-13-22.63,23.11c8.22,28.01,0.5,98.05-3.38,128.04c-0.96,7.46,5.06,13.97,12.57,13.6
				C1252.31,733.49,1300.41,728.45,1292.17,707.66z"/>
			<path class="st54" d="M1101.55,707.66c10.11-25.52,57.29-1.44,57.29-1.44c-13.48-63.07-9.63-120.36-9.63-120.36l3.85-15.89
				c0,0,33.22-13,22.63,23.11c-8.22,28.01-0.5,98.05,3.38,128.04c0.96,7.46-5.06,13.97-12.57,13.6
				C1141.4,733.49,1093.31,728.45,1101.55,707.66z"/>
			<path class="st54" d="M1401.54,319.59c0-103.7-91.82-187.76-205.09-187.76S991.36,215.9,991.36,319.59
				c0,52.16,23.23,99.35,60.74,133.37c21.81,19.78,33.32,48.27,33.14,77.72c0,0.17,0,0.34,0,0.5c0,52.25,49.79,94.6,111.21,94.6
				s111.21-42.36,111.21-94.6c0-0.17,0-0.34,0-0.5c-0.18-29.44,11.33-57.94,33.14-77.72
				C1378.31,418.94,1401.54,371.75,1401.54,319.59z"/>
			<g>
				<path class="st55" d="M1371.19,351.46c0,2.05-0.1,4.07-0.28,6.07c-3.05,33.5-31.22,59.73-65.52,59.73
					c-34.28,0-62.45-26.23-65.52-59.73c-0.19-1.99-0.29-4.02-0.29-6.07c0-36.33,29.47-65.79,65.8-65.79
					C1341.74,285.68,1371.19,315.13,1371.19,351.46z"/>
				<path class="st54" d="M1371.19,341.49c0,2.05-0.1,4.07-0.28,6.07c-3.05,33.5-31.22,59.73-65.52,59.73
					c-34.28,0-62.45-26.23-65.52-59.73c-0.19-1.99-0.29-4.02-0.29-6.07c0-36.33,29.47-65.79,65.8-65.79
					C1341.74,275.71,1371.19,305.16,1371.19,341.49z"/>
				
					<ellipse transform="matrix(0.7071 -0.7071 0.7071 0.7071 140.8635 1023.073)" class="st0" cx="1305.39" cy="341.5" rx="58.62" ry="58.62"/>
				
					<ellipse transform="matrix(0.7071 -0.7071 0.7071 0.7071 136.5794 1024.8475)" class="st2" cx="1305.39" cy="347.56" rx="37.33" ry="37.33"/>
				<circle class="st56" cx="1305.39" cy="347.56" r="17.15"/>
				
					<ellipse transform="matrix(0.9585 -0.2852 0.2852 0.9585 -39.6192 385.0679)" class="st0" cx="1302.15" cy="328.55" rx="14.92" ry="7.71"/>
				<circle class="st0" cx="1317.06" cy="365.8" r="7.36"/>
			</g>
			<g>
				<path class="st55" d="M1155.13,351.46c0,2.05-0.1,4.07-0.29,6.07c-3.05,33.5-31.22,59.73-65.5,59.73
					c-34.3,0-62.47-26.23-65.52-59.73c-0.19-1.99-0.29-4.02-0.29-6.07c0-36.33,29.45-65.79,65.8-65.79
					C1125.68,285.68,1155.13,315.13,1155.13,351.46z"/>
				<path class="st54" d="M1155.13,341.49c0,2.05-0.1,4.07-0.29,6.07c-3.05,33.5-31.22,59.73-65.5,59.73
					c-34.3,0-62.47-26.23-65.52-59.73c-0.19-1.99-0.29-4.02-0.29-6.07c0-36.33,29.45-65.79,65.8-65.79
					C1125.68,275.71,1155.13,305.16,1155.13,341.49z"/>
				
					<ellipse transform="matrix(0.2112 -0.9774 0.9774 0.2112 525.4308 1334.1145)" class="st0" cx="1089.34" cy="341.5" rx="58.62" ry="58.62"/>
				
					<ellipse transform="matrix(0.2099 -0.9777 0.9777 0.2099 520.8651 1339.6716)" class="st2" cx="1089.34" cy="347.56" rx="37.33" ry="37.33"/>
				<circle class="st56" cx="1089.34" cy="347.56" r="17.15"/>
				
					<ellipse transform="matrix(0.9585 -0.2852 0.2852 0.9585 -48.5947 323.4413)" class="st0" cx="1086.09" cy="328.55" rx="14.92" ry="7.71"/>
				<circle class="st0" cx="1101.01" cy="365.8" r="7.36"/>
			</g>
			<path class="st57" d="M1155.13,341.49c0,2.05-0.1,4.07-0.29,6.07h-131.02c-0.19-1.99-0.29-4.02-0.29-6.07
				c0-36.33,29.45-65.79,65.8-65.79C1125.68,275.71,1155.13,305.16,1155.13,341.49z"/>
			<path class="st57" d="M1371.19,341.49c0,2.05-0.1,4.07-0.28,6.07h-131.03c-0.19-1.99-0.29-4.02-0.29-6.07
				c0-36.33,29.47-65.79,65.8-65.79C1341.74,275.71,1371.19,305.16,1371.19,341.49z"/>
			<g>
				<path class="st53" d="M1230.21,490.76c-12.88,2.65-26.28-9.66-29.94-27.47c-0.49-2.37-0.78-4.71-0.88-7
					c-0.1-1.9-0.06-3.76,0.11-5.57c1.99-1.46,4.06-2.87,6.26-4.13c1.05-0.61,2.12-1.17,3.22-1.7l1.78-0.72l0.89-0.35l0.93-0.26
					l1.88-0.49l1.93-0.27c0.65-0.11,1.29-0.11,1.94-0.12c0.65,0.01,1.31-0.05,1.95,0.04c2.59,0.15,5.05,0.78,7.42,1.54
					c2.34,0.83,4.56,1.82,6.68,2.88c4.23,2.12,8.17,4.5,12.14,6.39c0.13,0.07,0.28,0.13,0.41,0.2c0.52,2.56,0.82,5.07,0.9,7.55
					C1248.32,476,1241.24,488.49,1230.21,490.76z"/>
				<path class="st10" d="M1284.71,461.75c0,7.85-3.01,14.23-6.72,14.23c-3.67,0-6.65-6.22-6.71-13.94c-0.01-0.1-0.01-0.2-0.01-0.29
					c0-3.43,0.57-6.57,1.52-9.03c2.16-1.45,4.2-3.18,6.14-5.06c1.99,0.6,3.7,3.01,4.72,6.44
					C1284.32,456.31,1284.71,458.93,1284.71,461.75z"/>
				<path class="st10" d="M1129.81,455.65c0,7.85-3.01,14.23-6.72,14.23c-3.72,0-6.72-6.38-6.72-14.23c0-2.02,0.21-3.95,0.56-5.7
					c0.06-0.28,0.12-0.55,0.2-0.82c2.34-0.45,4.65-1.17,6.89-1.99c1.29-0.48,2.56-0.99,3.84-1.5c0.17,0.35,0.33,0.73,0.48,1.13
					C1129.27,449.21,1129.81,452.29,1129.81,455.65z"/>
				<path class="st58" d="M1108.58,437.77c-0.87,2.5-2.17,4.87-3.84,6.96c-0.44,0.51-0.83,1.06-1.32,1.52l-0.22,0.21l-0.15,0.15
					l-1.09,1.05c-0.51,0.43-1.05,0.83-1.6,1.23c-0.27,0.2-0.54,0.4-0.82,0.59l-0.88,0.49c-2.29,1.39-4.94,2.11-7.54,2.31
					c2.1-1.63,4.12-2.95,5.87-4.65c0.46-0.38,0.9-0.78,1.3-1.22c0.41-0.44,0.87-0.82,1.26-1.26c0.46-0.52,0.94-1.04,1.39-1.57
					c0.01-0.01,0.04-0.02,0.05-0.05c0.3-0.34,0.6-0.71,0.88-1.07c1.46-1.84,2.83-3.81,4.1-5.89c1.27-2.09,2.46-4.24,3.71-6.55
					C1109.93,432.64,1109.42,435.28,1108.58,437.77z"/>
				<path class="st58" d="M1302.4,452.27c-2.59-0.2-5.24-0.91-7.54-2.31l-0.88-0.49c-0.28-0.18-0.54-0.39-0.82-0.59
					c-0.54-0.4-1.09-0.81-1.6-1.23l-0.73-0.71l-0.72-0.7c-0.49-0.46-0.87-1.01-1.3-1.52c-1.18-1.49-2.18-3.11-2.96-4.82
					c-0.34-0.71-0.62-1.41-0.88-2.15c-0.84-2.49-1.35-5.12-1.12-7.76c1.26,2.31,2.44,4.46,3.72,6.55c0.13,0.21,0.26,0.43,0.39,0.63
					c1.16,1.85,2.38,3.6,3.71,5.26c0.46,0.62,0.98,1.21,1.5,1.79c0.27,0.3,0.54,0.6,0.81,0.9c0.4,0.44,0.85,0.82,1.26,1.26
					c0.41,0.44,0.85,0.84,1.31,1.22C1298.28,449.32,1300.31,450.63,1302.4,452.27z"/>
				<path class="st58" d="M1293.17,444.24c-0.76,0.91-1.54,1.82-2.33,2.71c-1.76,2-3.6,3.94-5.62,5.76
					c-0.51,0.48-1.04,0.94-1.56,1.39c-3.16,2.76-6.64,5.28-10.61,7.17c-0.57,0.27-1.16,0.52-1.76,0.77
					c-4.21,1.7-8.94,2.56-13.53,1.99c-2.62-0.23-5.09-0.96-7.48-1.76c-0.83-0.32-1.66-0.65-2.46-1c-1.45-0.62-2.87-1.29-4.21-2.02
					c-4.24-2.24-8.09-4.77-11.98-6.92c-1.94-1.06-3.88-2.02-5.85-2.79c-1.96-0.72-3.95-1.32-5.95-1.5c-0.5-0.1-0.99-0.05-1.49-0.09
					c-0.5-0.01-1-0.04-1.5,0.04l-1.49,0.13l-1.46,0.33l-0.73,0.17l-0.72,0.26l-1.44,0.51c-0.98,0.43-1.96,0.89-2.93,1.4
					c-2.98,1.56-5.83,3.48-8.68,5.5c-0.85,0.6-1.71,1.21-2.56,1.83c-3.74,2.66-7.54,5.5-12.07,7.45c-2.27,0.96-4.78,1.6-7.37,1.61
					c-2.59,0.01-5.15-0.66-7.37-1.78c-4.48-2.29-7.79-5.85-10.72-9.49c-2.84-3.5-5.82-6.92-9.5-9.34l-1.39-0.88
					c-0.46-0.29-0.98-0.45-1.46-0.7c-0.5-0.18-0.98-0.5-1.51-0.6l-1.56-0.41c-2.11-0.38-4.32-0.46-6.5,0.02
					c-2.18,0.39-4.34,1.09-6.49,1.85c-0.84,0.3-1.68,0.61-2.54,0.91c-1.32,0.48-2.63,0.94-3.98,1.38c-2.4,0.77-4.9,1.44-7.43,1.79
					c-2.07,0.3-4.16,0.39-6.26,0.17c-2.31-0.26-4.6-1.04-6.44-2.46c-0.41-0.32-0.82-0.67-1.18-1.05c-0.88-0.88-1.6-1.91-2.1-3.04
					c0.01-0.01,0.04-0.02,0.05-0.05c0.54,1.11,1.29,2.11,2.2,2.94c0.38,0.35,0.78,0.68,1.2,0.98c1.84,1.33,4.1,1.99,6.34,2.16
					c2.15,0.15,4.28-0.05,6.39-0.46c2.34-0.45,4.65-1.17,6.89-1.99c1.29-0.48,2.56-0.99,3.84-1.5c0.84-0.34,1.68-0.68,2.54-1.02
					c2.13-0.87,4.33-1.67,6.65-2.18c2.29-0.6,4.77-0.63,7.16-0.29l1.78,0.4c0.61,0.1,1.13,0.41,1.71,0.61
					c0.56,0.23,1.15,0.41,1.67,0.71l1.56,0.89c4.11,2.49,7.37,5.98,10.44,9.46c2.92,3.38,6.2,6.54,10.01,8.29
					c1.9,0.87,3.93,1.29,5.93,1.2c2.01-0.07,4.01-0.65,5.94-1.56c3.85-1.82,7.4-4.63,11-7.44c1.72-1.33,3.45-2.68,5.24-3.99
					c1.99-1.46,4.06-2.87,6.26-4.13c1.05-0.61,2.12-1.17,3.22-1.7l1.78-0.72l0.89-0.35l0.93-0.26l1.88-0.49l1.93-0.27
					c0.65-0.11,1.29-0.11,1.94-0.12c0.65,0.01,1.31-0.05,1.95,0.04c2.59,0.15,5.05,0.78,7.42,1.54c2.34,0.83,4.56,1.82,6.68,2.88
					c4.23,2.12,8.17,4.5,12.14,6.39c0.13,0.07,0.28,0.13,0.41,0.2c1.84,0.89,3.67,1.61,5.53,2.24c1.99,0.56,3.98,1.07,5.94,1.16
					c3.94,0.33,7.77-0.71,11.36-2.56c1.05-0.54,2.06-1.16,3.06-1.84c2.16-1.45,4.2-3.18,6.14-5.06c0.26-0.23,0.5-0.48,0.74-0.72
					c2.21-2.15,4.22-4.55,6.17-7.03c0.71-0.9,1.41-1.81,2.11-2.72c1.16,1.85,2.38,3.6,3.71,5.26
					C1292.13,443.07,1292.64,443.66,1293.17,444.24z"/>
			</g>
			<path class="st54" d="M1102.4,522.42c0,0-32.81,30.78-15.38,47.41c17.42,16.62,25.63,36.93,13.38,32.6
				c-8.35-2.95-10.82-7.29-19.86-3.77c-9.04,3.53-7.17,20.13-15.64,19.78c-8.32-0.34-3.44-16.83-8.84-19.18
				c-5.4-2.35-10.12,1.61-15.39-6.93c-5.27-8.54,13.24-10.28,12.85-28.99c-0.39-18.71,14.58-40.17,31.3-53.02
				C1101.53,497.48,1109.03,512.01,1102.4,522.42z"/>
			<path class="st54" d="M1299.94,522.42c0,0,32.81,30.78,15.38,47.41c-17.42,16.62-25.63,36.93-13.38,32.6
				c8.35-2.95,10.82-7.29,19.86-3.77c9.04,3.53,7.17,20.13,15.64,19.78c8.32-0.34,3.44-16.83,8.84-19.18s10.12,1.61,15.39-6.93
				c5.27-8.54-13.24-10.28-12.85-28.99c0.39-18.71-14.58-40.17-31.3-53.02C1300.81,497.48,1293.31,512.01,1299.94,522.42z"/>
			<path class="st54" d="M1156.83,139.13c0,0-3.61-30.97-32.5-35.67c0,0,47.26-7.58,60.62,27.8c0,0,15.57-39.72,61.78-34.3
				c0,0-24.19,13.72-23.83,37.55l-27.08,41.16L1156.83,139.13z"/>
			<ellipse class="st59" cx="1196.45" cy="570.24" rx="71.61" ry="48.46"/>
			<g>
				<circle class="st60" cx="1133.78" cy="168.57" r="14.18"/>
				
					<ellipse transform="matrix(0.7071 -0.7071 0.7071 0.7071 228.5334 870.7841)" class="st60" cx="1165.4" cy="159.53" rx="7.48" ry="7.48"/>
				
					<ellipse transform="matrix(0.2298 -0.9732 0.9732 0.2298 709.0051 1279.4102)" class="st60" cx="1162.81" cy="191.77" rx="18.48" ry="18.48"/>
				<circle class="st60" cx="1196.45" cy="150.61" r="13.96"/>
				<path class="st60" d="M1094.96,173.29c0,3.11-2.52,5.63-5.62,5.63s-5.63-2.52-5.63-5.63c0-3.11,2.52-5.62,5.63-5.62
					S1094.96,170.19,1094.96,173.29z"/>
				
					<ellipse transform="matrix(0.208 -0.9781 0.9781 0.208 685.724 1244.3551)" class="st60" cx="1111.23" cy="198.75" rx="15.43" ry="15.43"/>
				<circle class="st60" cx="1147.96" cy="150.61" r="3.79"/>
			</g>
			<g>
				<path class="st55" d="M1293.11,538.63c2.75,0,4.98-2.23,4.98-4.98c0-2.75-2.23-4.98-4.98-4.98s-4.98,2.23-4.98,4.98
					C1288.13,536.39,1290.36,538.63,1293.11,538.63z"/>
				<path class="st55" d="M1298.39,543.7c-2.46,0-4.46,1.99-4.46,4.46c0,2.46,1.99,4.46,4.46,4.46c2.46,0,4.46-1.99,4.46-4.46
					C1302.84,545.7,1300.85,543.7,1298.39,543.7z"/>
				<path class="st55" d="M1288.52,556.45c-2.99,0-5.41,2.42-5.41,5.41c0,2.99,2.42,5.41,5.41,5.41c2.99,0,5.41-2.42,5.41-5.41
					C1293.93,558.88,1291.51,556.45,1288.52,556.45z"/>
				<path class="st55" d="M1283.77,573.34c-1.65,0-2.98,1.34-2.98,2.98c0,1.65,1.34,2.98,2.98,2.98s2.98-1.34,2.98-2.98
					C1286.75,574.67,1285.42,573.34,1283.77,573.34z"/>
				<path class="st55" d="M1286.54,551.29c0,0.43,0.35,0.78,0.78,0.78c0.43,0,0.78-0.35,0.78-0.78c0-0.43-0.35-0.78-0.78-0.78
					C1286.89,550.5,1286.54,550.85,1286.54,551.29z"/>
				<path class="st55" d="M1302,537.44c-0.93,0-1.69,0.75-1.69,1.69c0,0.93,0.75,1.68,1.69,1.68c0.93,0,1.69-0.75,1.69-1.68
					C1303.69,538.2,1302.94,537.44,1302,537.44z"/>
				<path class="st55" d="M1297.79,556.34c-1.4,0-2.53,1.13-2.53,2.53c0,1.4,1.13,2.53,2.53,2.53c1.4,0,2.53-1.13,2.53-2.53
					C1300.32,557.47,1299.19,556.34,1297.79,556.34z"/>
				<path class="st55" d="M1287.32,541.42c0-3.92-3.18-7.1-7.1-7.1c-3.92,0-7.1,3.18-7.1,7.1c0,3.92,3.18,7.1,7.1,7.1
					C1284.14,548.52,1287.32,545.34,1287.32,541.42z"/>
			</g>
		</g>
	</g>
	<g>
		<ellipse class="st1" cx="2595.45" cy="1410.83" rx="166.33" ry="14.54"/>
		<g>
			<path class="st61" d="M2736.7,1381.21c-13.97-35.27-79.18-2-79.18-2c18.63-87.17,13.31-166.35,13.31-166.35l-5.32-21.96
				c0,0-45.91-17.97-31.27,31.94c11.36,38.72,0.69,135.51-4.67,176.96c-1.33,10.32,6.99,19.3,17.38,18.8
				C2681.61,1416.92,2748.09,1409.95,2736.7,1381.21z"/>
			<path class="st61" d="M2448.58,1381.21c13.97-35.27,79.18-2,79.18-2c-18.63-87.17-13.31-166.35-13.31-166.35l5.32-21.96
				c0,0,45.91-17.97,31.27,31.94c-11.36,38.72-0.69,135.51,4.67,176.96c1.33,10.32-6.99,19.3-17.38,18.8
				C2503.67,1416.92,2437.19,1409.95,2448.58,1381.21z"/>
			<path class="st61" d="M2401.96,1078.64c0,0-99.89,57.98-87.97,142.73c11.91,84.75,76.39,54.25,59.74,18.12
				c0,0,18.48,13.86,22.24,4.9s-15.65-33.06-15.65-33.06s-19.33-56.19,37.1-101.07l0.66-27.8L2401.96,1078.64z"/>
			<path class="st61" d="M2788.67,1078.64c0,0,99.89,57.98,87.97,142.73c-11.91,84.75-76.39,54.25-59.74,18.12
				c0,0-18.48,13.86-22.24,4.9s15.65-33.06,15.65-33.06s19.33-56.19-37.1-101.07l-0.66-27.8L2788.67,1078.64z"/>
			<path class="st61" d="M2573.22,879.36c3.68-6.77,13.74-23.1,34.14-34.14c17.93-9.7,34.68-10.34,42.44-10.15
				c-8.92,15.38-17.84,30.75-26.76,46.13c7.49-2.9,36.05-12.92,66.43,0c12.98,5.52,22.04,13.43,27.68,19.37
				c-11.99,1.69-23.99,3.38-35.98,5.07c13.08,1.97,60.18,10.68,95.49,52.59c23.31,27.66,30.62,56.88,33.21,71.5
				c-6.46-6.46-12.92-12.92-19.38-19.37c5.47,8.2,19.14,31.16,14.3,59.05c-1.09,6.3-2.96,11.86-5.07,16.61
				c-3.08-8.3-6.15-16.61-9.23-24.91c3.84,16.56,9.86,53.18-4.61,95.03c-22.57,65.26-77.88,93.77-89.95,99.64
				c1.69-5.54,3.38-11.07,5.07-16.61c-8.34,8.74-22.54,21.34-43.36,30.45c-12.76,5.58-24.48,8.31-33.68,9.69
				c0.61-4.46,1.23-8.92,1.85-13.38c-4.7,4.67-18.95,17.56-40.59,19.37c-9.27,0.78-17.1-0.71-22.6-2.31
				c2.46-3.84,4.92-7.69,7.38-11.53c-15.64,1.7-40.3,1.94-66.89-8.76c-68.01-27.39-86.85-101.5-89.03-110.71
				c-3.38,6.3-6.77,12.61-10.15,18.91c-5.55-10.27-15.17-31.56-14.3-59.51c0.5-16.15,4.35-29.3,7.84-38.29
				c-6,6-11.99,11.99-17.99,17.99c-0.53-12.86,0.28-32.55,7.84-54.9c5.33-15.73,12.41-28.08,18.45-36.9
				c-7.69,6-15.38,11.99-23.07,17.99c2.49-12.64,9.11-37.25,28.6-61.35c16.33-20.2,34.63-31.3,45.67-36.9
				c-14.61-1.08-29.22-2.15-43.82-3.23c11.04-8.24,27.86-18.82,50.28-26.29c28.06-9.35,52.59-9.73,67.81-8.76
				c-9.38-8.15-18.76-16.3-28.14-24.45c5.82-1.59,23.88-5.71,43.82,2.77C2560.9,865,2569.32,874.36,2573.22,879.36z"/>
			<g>
				<circle class="st62" cx="2597.51" cy="1051.89" r="101.6"/>
				<circle class="st61" cx="2597.51" cy="1035.08" r="101.6"/>
				
					<ellipse transform="matrix(0.7071 -0.7071 0.7071 0.7071 28.8824 2139.8884)" class="st0" cx="2597.51" cy="1035.08" rx="90.51" ry="90.51"/>
				
					<ellipse transform="matrix(0.2298 -0.9732 0.9732 0.2298 984.2333 3332.5022)" class="st63" cx="2597.51" cy="1044.44" rx="57.64" ry="57.64"/>
				
					<ellipse transform="matrix(0.2298 -0.9732 0.9732 0.2298 984.2337 3332.5024)" class="st64" cx="2597.51" cy="1044.44" rx="26.49" ry="26.49"/>
				
					<ellipse transform="matrix(0.9585 -0.2852 0.2852 0.9585 -181.8393 781.654)" class="st0" cx="2592.51" cy="1015.08" rx="23.03" ry="11.9"/>
				<circle class="st0" cx="2615.54" cy="1072.61" r="11.36"/>
			</g>
			<g>
				<g>
					<path class="st65" d="M2476.8,1214.6c-0.49,0-0.99-0.17-1.39-0.53c-0.87-0.77-0.95-2.1-0.19-2.97
						c13.24-15,6.3-35.12,6.23-35.32c-0.39-1.09,0.18-2.3,1.28-2.68c1.09-0.39,2.29,0.18,2.68,1.28c0.33,0.92,7.82,22.67-7.03,39.51
						C2477.96,1214.36,2477.38,1214.6,2476.8,1214.6z"/>
				</g>
				<path class="st0" d="M2517.47,1186.88c-9.58,1.86-18.56,4.06-26.8,6.54c2.79-10.73,9.09-31.41,16.43-32.46
					C2513.28,1160.08,2516.17,1175.25,2517.47,1186.88z"/>
				<path class="st0" d="M2703.5,1194.31c-8.29-2.62-17.37-4.95-27.1-6.91c1.26-11.7,4.15-27.33,10.41-26.44
					C2694.37,1162.04,2700.83,1183.87,2703.5,1194.31z"/>
				<g>
					<path class="st65" d="M2716.62,1214.6c-0.58,0-1.16-0.24-1.58-0.71c-14.86-16.84-7.36-38.59-7.03-39.51
						c0.39-1.09,1.58-1.67,2.68-1.28c1.09,0.39,1.66,1.59,1.28,2.68l0,0c-0.07,0.2-6.97,20.37,6.23,35.32
						c0.77,0.87,0.68,2.2-0.19,2.97C2717.61,1214.43,2717.12,1214.6,2716.62,1214.6z"/>
				</g>
				<g>
					<path class="st65" d="M2484.9,1195.24c17.53-7.3,36.21-11.77,55.01-14.71c9.41-1.52,18.89-2.47,28.39-3.22
						c9.5-0.68,19.03-0.95,28.55-0.99c9.52,0.09,19.05,0.41,28.55,1.14c9.49,0.8,18.97,1.8,28.37,3.38
						c18.77,3.07,37.44,7.65,54.89,15.16c-18.36-4.74-36.94-7.72-55.61-9.75c-9.35-0.91-18.69-1.78-28.07-2.18
						c-9.37-0.52-18.75-0.78-28.14-0.75c-9.38-0.09-18.77,0.16-28.14,0.6c-4.69,0.19-9.37,0.48-14.05,0.81
						c-4.68,0.38-9.36,0.76-14.03,1.2C2521.91,1187.84,2503.31,1190.72,2484.9,1195.24z"/>
				</g>
			</g>
			<g>
				<path class="st66" d="M2554.65,902.49c0,2.48-2.01,4.5-4.5,4.5c-2.48,0-4.5-2.01-4.5-4.5s2.01-4.5,4.5-4.5
					C2552.64,897.99,2554.65,900,2554.65,902.49z"/>
				
					<ellipse transform="matrix(0.2298 -0.9732 0.9732 0.2298 1107.064 3203.8091)" class="st66" cx="2577.62" cy="902.49" rx="14.88" ry="14.88"/>
				<circle class="st66" cx="2552.52" cy="920.24" r="9.13"/>
				
					<ellipse transform="matrix(0.9239 -0.3827 0.3827 0.9239 -155.7319 1035.3199)" class="st66" cx="2524.58" cy="909.12" rx="8.25" ry="8.25"/>
				<circle class="st66" cx="2528.64" cy="932.55" r="12.31"/>
				
					<ellipse transform="matrix(0.7071 -0.7071 0.7071 0.7071 82.3593 2033.5734)" class="st66" cx="2495.92" cy="917.37" rx="11.08" ry="11.08"/>
			</g>
			<g>
				<path class="st62" d="M2622.85,1223.11c0,2.48-2.01,4.5-4.5,4.5c-2.48,0-4.5-2.01-4.5-4.5s2.01-4.5,4.5-4.5
					C2620.84,1218.61,2622.85,1220.63,2622.85,1223.11z"/>
				
					<ellipse transform="matrix(0.9239 -0.3827 0.3827 0.9239 -266.6634 1105.6172)" class="st62" cx="2645.82" cy="1223.11" rx="14.88" ry="14.88"/>
				
					<ellipse transform="matrix(0.2298 -0.9732 0.9732 0.2298 810.9396 3506.385)" class="st62" cx="2620.72" cy="1240.86" rx="9.13" ry="9.13"/>
				<circle class="st62" cx="2592.78" cy="1229.74" r="8.25"/>
				<circle class="st62" cx="2596.84" cy="1253.17" r="12.31"/>
				<circle class="st62" cx="2564.12" cy="1237.99" r="11.08"/>
			</g>
		</g>
	</g>
</g>
</svg>
